<svg width="20" height="17" viewBox="0 0 20 17" fill="none" xmlns="http://www.w3.org/2000/svg">
<path d="M7.07937 5.45294L6.95685 5.67403L6.70618 5.70646L0.711971 6.48187C0.711788 6.48189 0.711605 6.48192 0.711424 6.48194C0.623508 6.4937 0.563641 6.53364 0.531822 6.57157C0.501591 6.60761 0.497105 6.63845 0.501493 6.66377L0.501534 6.66377L0.502522 6.66993C0.50605 6.69191 0.519405 6.724 0.55681 6.75674C0.556915 6.75684 0.55702 6.75693 0.557127 6.75702L4.89407 10.5207L5.11192 10.7097L5.05731 10.993L4.03246 16.3086L4.03238 16.3091C4.0271 16.3363 4.03175 16.3681 4.06036 16.4041C4.09034 16.4418 4.14748 16.4821 4.23368 16.4953L4.23432 16.4955C4.30263 16.506 4.37099 16.4951 4.42312 16.4704L4.42527 16.4694L9.78802 13.9598L9.99995 13.8606L10.2119 13.9598L15.5746 16.4694L15.5754 16.4698C15.622 16.4917 15.6784 16.503 15.737 16.4993C15.7955 16.4956 15.8474 16.4774 15.8869 16.4519C15.9261 16.4266 15.9482 16.3974 15.9591 16.3736C15.9696 16.3506 15.9714 16.3292 15.9676 16.3094L15.9674 16.3086L14.9426 10.993L14.888 10.7097L15.1058 10.5207L19.4437 6.75618L19.4438 6.75616C19.4878 6.71794 19.4996 6.67902 19.5 6.65291C19.5004 6.62711 19.49 6.58923 19.4488 6.55118C19.412 6.518 19.3575 6.49072 19.2904 6.48219L19.2893 6.48205L13.2937 5.70646L13.0431 5.67403L12.9205 5.45294L10.2417 0.619021C10.2416 0.618762 10.2415 0.618504 10.2413 0.618246C10.1932 0.533945 10.0281 0.455801 9.86578 0.527126L9.86523 0.527367C9.80918 0.551917 9.77588 0.586983 9.75981 0.616051L9.75956 0.616501L7.07937 5.45294Z" stroke="#ACA878"/>
</svg>
