<svg width="20" height="17" viewBox="0 0 20 17" fill="none" xmlns="http://www.w3.org/2000/svg">
<path d="M4.6372 16.9223C4.49079 16.9917 4.32077 17.0148 4.15783 16.9896C3.74695 16.9265 3.47066 16.5797 3.54151 16.214L4.6372 16.9223ZM4.6372 16.9223L9.99995 14.4127L15.3627 16.9223M4.6372 16.9223H15.3627M15.3627 16.9223C15.4874 16.9809 15.628 17.0072 15.7686 16.9983M15.3627 16.9223L15.7686 16.9983M16.4584 16.214L15.4335 10.8983L16.4584 16.214ZM16.4584 16.214C16.4824 16.3376 16.4671 16.4648 16.414 16.5811M16.4584 16.214L16.414 16.5811M16.414 16.5811C16.361 16.6973 16.2724 16.7981 16.1583 16.8718M16.414 16.5811L16.1583 16.8718M16.1583 16.8718C16.0443 16.9456 15.9093 16.9894 15.7686 16.9983M16.1583 16.8718L15.7686 16.9983M7.07937 5.45294L6.95685 5.67403L6.70618 5.70646L0.711973 6.48187C0.711809 6.48189 0.711647 6.48191 0.711485 6.48193C0.623539 6.49368 0.563648 6.53363 0.531822 6.57157C0.501593 6.60761 0.497105 6.63845 0.501495 6.66377L0.501534 6.66377L0.502523 6.66994C0.506048 6.69189 0.519388 6.72396 0.556749 6.75669C0.556875 6.7568 0.557001 6.75691 0.557127 6.75702L4.89407 10.5207L5.11192 10.7097L5.05731 10.993L4.03246 16.3086L4.03238 16.3091C4.0271 16.3363 4.03175 16.3681 4.06036 16.4041C4.09034 16.4418 4.14748 16.4821 4.23368 16.4953L4.23432 16.4955C4.30263 16.506 4.37099 16.4951 4.42312 16.4704L4.42527 16.4694L9.78802 13.9598L9.99995 13.8606L10.2119 13.9598L15.5746 16.4694L15.5754 16.4698C15.622 16.4917 15.6784 16.503 15.737 16.4993C15.7955 16.4956 15.8474 16.4774 15.8869 16.4519C15.9261 16.4266 15.9482 16.3974 15.9591 16.3736C15.9696 16.3506 15.9714 16.3292 15.9676 16.3094L15.9674 16.3086L14.9426 10.993L14.888 10.7097L15.1058 10.5207L19.4437 6.75618L19.4438 6.75616C19.4878 6.71794 19.4996 6.67902 19.5 6.65291C19.5004 6.6271 19.49 6.58922 19.4488 6.55117C19.412 6.51799 19.3575 6.49072 19.2904 6.48219L19.2893 6.48205L13.2937 5.70646L13.0431 5.67403L12.9205 5.45294L10.2417 0.619021C10.2416 0.618762 10.2415 0.618504 10.2413 0.618246C10.1932 0.533945 10.0281 0.455801 9.86578 0.527126L9.86523 0.527367C9.80918 0.551917 9.77588 0.586983 9.75982 0.61605L9.75956 0.616501L7.07937 5.45294Z" stroke="#3F0B0F"/>
</svg>
