<svg width="15" height="15" viewBox="0 0 15 15" fill="none" xmlns="http://www.w3.org/2000/svg">
<path d="M14.85 0H0.15C0.0675 0 0 0.0767045 0 0.170455V1.53409C0 1.62784 0.0675 1.70455 0.15 1.70455H14.85C14.9325 1.70455 15 1.62784 15 1.53409V0.170455C15 0.0767045 14.9325 0 14.85 0ZM14.85 13.2955H0.15C0.0675 13.2955 0 13.3722 0 13.4659V14.8295C0 14.9233 0.0675 15 0.15 15H14.85C14.9325 15 15 14.9233 15 14.8295V13.4659C15 13.3722 14.9325 13.2955 14.85 13.2955ZM14.85 6.64773H0.15C0.0675 6.64773 0 6.72443 0 6.81818V8.18182C0 8.27557 0.0675 8.35227 0.15 8.35227H14.85C14.9325 8.35227 15 8.27557 15 8.18182V6.81818C15 6.72443 14.9325 6.64773 14.85 6.64773Z" fill="black"/>
</svg>
