<svg width="20" height="17" viewBox="0 0 20 17" fill="none" xmlns="http://www.w3.org/2000/svg">
<path d="M0.646421 5.98618L6.64203 5.21059L9.32223 0.374144C9.39543 0.241725 9.51586 0.134529 9.66463 0.0693701C10.0377 -0.0945772 10.4911 0.0420455 10.6777 0.374144L13.3579 5.21059L19.3535 5.98618C19.5188 6.0072 19.6699 6.07656 19.7856 6.18166C19.9255 6.30964 20.0026 6.48181 19.9999 6.66035C19.9973 6.83889 19.9151 7.00918 19.7715 7.13381L15.4335 10.8983L16.4584 16.214C16.4824 16.3376 16.4671 16.4648 16.414 16.5811C16.361 16.6973 16.2724 16.7981 16.1583 16.8718C16.0443 16.9456 15.9093 16.9894 15.7686 16.9983C15.628 17.0072 15.4874 16.9809 15.3627 16.9223L9.99995 14.4127L4.6372 16.9223C4.49079 16.9917 4.32077 17.0148 4.15783 16.9896C3.74695 16.9265 3.47066 16.5797 3.54151 16.214L4.56636 10.8983L0.228453 7.13381C0.110382 7.03082 0.0324554 6.8963 0.00884056 6.74917C-0.0549183 6.38134 0.233175 6.04083 0.646421 5.98618Z" fill="#76838B"/>
</svg>
