<svg width="43" height="43" viewBox="0 0 43 43" fill="none" xmlns="http://www.w3.org/2000/svg">
<path d="M5.375 10.0781C5.375 9.54355 5.58736 9.03087 5.96536 8.65286C6.34337 8.27486 6.85605 8.0625 7.39062 8.0625H35.6094C36.144 8.0625 36.6566 8.27486 37.0346 8.65286C37.4126 9.03087 37.625 9.54355 37.625 10.0781C37.625 10.6127 37.4126 11.1254 37.0346 11.5034C36.6566 11.8814 36.144 12.0938 35.6094 12.0938H7.39062C6.85605 12.0938 6.34337 11.8814 5.96536 11.5034C5.58736 11.1254 5.375 10.6127 5.375 10.0781ZM5.375 20.8281C5.375 20.2935 5.58736 19.7809 5.96536 19.4029C6.34337 19.0249 6.85605 18.8125 7.39062 18.8125H35.6094C36.144 18.8125 36.6566 19.0249 37.0346 19.4029C37.4126 19.7809 37.625 20.2935 37.625 20.8281C37.625 21.3627 37.4126 21.8754 37.0346 22.2534C36.6566 22.6314 36.144 22.8438 35.6094 22.8438H7.39062C6.85605 22.8438 6.34337 22.6314 5.96536 22.2534C5.58736 21.8754 5.375 21.3627 5.375 20.8281ZM5.375 31.5781C5.375 31.0435 5.58736 30.5309 5.96536 30.1529C6.34337 29.7749 6.85605 29.5625 7.39062 29.5625H35.6094C36.144 29.5625 36.6566 29.7749 37.0346 30.1529C37.4126 30.5309 37.625 31.0435 37.625 31.5781C37.625 32.1127 37.4126 32.6254 37.0346 33.0034C36.6566 33.3814 36.144 33.5938 35.6094 33.5938H7.39062C6.85605 33.5938 6.34337 33.3814 5.96536 33.0034C5.58736 32.6254 5.375 32.1127 5.375 31.5781Z" fill="black"/>
</svg>
