<svg width="45" height="49" viewBox="0 0 45 49" fill="none" xmlns="http://www.w3.org/2000/svg">
<g clip-path="url(#clip0_46_20)">
<path d="M22.4694 46.5C13.2959 46.5 8.22161 45.7271 4.91831 43.8153C2.49061 42.4119 0.978271 40.2966 0.978271 38.3034V11.8424C0.978271 8.8729 3.10749 5.47627 6.51024 2.99492C9.33594 0.940678 14.4103 -1.5 22.4694 -1.5C36.4984 -1.5 43.9607 6.24915 43.9607 11.8424V11.9644V38.2831C43.9607 40.2966 42.4483 42.4119 40.0007 43.8153C36.7173 45.7271 31.643 46.5 22.4694 46.5Z" fill="#F5EBDC"/>
<path d="M37.5862 40.8012C34.6227 42.5112 29.5386 43 22.5058 43C15.473 43 10.3889 42.5112 7.4254 40.8012C5.64668 39.7773 4.74634 38.3813 4.74634 37.3805C4.74634 36.8105 5.04299 36.4846 5.70356 36.4846H39.3074C39.9686 36.4846 40.2646 36.8105 40.2646 37.3805C40.2652 38.3813 39.3649 39.7773 37.5862 40.8012ZM39.3074 14.2739H5.70356C5.04299 14.2739 4.74634 13.925 4.74634 13.2969C4.74634 9.57345 10.2292 3 22.5058 3C34.6686 3 40.2652 9.57345 40.2652 13.2969C40.2652 13.925 39.9686 14.2739 39.3074 14.2739Z" fill="#FF8732"/>
<path d="M11.9045 29.6321C11.8018 29.4692 11.7908 29.3643 11.7908 29.3181C11.7908 29.1901 11.8592 29.0971 11.9956 28.9691C12.3149 28.6663 13.1015 27.9103 13.5346 27.2241C13.8649 26.7003 14.0019 26.2234 14.0019 25.8282C14.0019 24.8161 13.1015 24.0245 12.121 24.0245C11.4941 24.0245 10.9014 24.3854 10.5026 25.0484C9.96678 25.9324 9.32822 26.9563 8.91838 27.364C8.81562 27.4689 8.75878 27.492 8.67924 27.492C8.54224 27.492 8.48535 27.3989 8.48535 27.2479V26.0841C8.48535 24.9441 7.82415 24.0245 6.62715 24.0245C5.41909 24.0245 4.76892 24.9435 4.76892 26.0841V33.2513C4.76892 34.3913 5.41851 35.3109 6.62715 35.3109C7.82415 35.3109 8.48535 34.3919 8.48535 33.2513V31.5994C8.48535 31.4595 8.54224 31.3552 8.67924 31.3552C8.8615 31.3552 8.90738 31.5413 8.95267 31.6343C9.21504 32.2742 9.97838 33.6353 10.6855 34.4381C11.1644 34.9732 11.7571 35.3109 12.3841 35.3109C13.4441 35.3109 14.3334 34.3682 14.3334 33.3562C14.3334 32.7281 14.071 32.2624 13.5694 31.7042C12.9309 30.9931 12.1785 30.0623 11.9045 29.6321Z" fill="#D62300"/>
<path d="M26.1194 23.3609C27.9091 23.3609 29.0376 22.1971 29.0376 20.499C29.0376 19.417 28.399 18.6722 27.1225 18.6722H26.7579C26.0851 18.6722 25.5609 18.9981 25.5609 19.7311C25.5609 20.3829 26.1194 20.6969 26.5414 20.6969C26.7579 20.6969 26.8949 20.7668 26.8949 20.9298C26.8949 21.1389 26.6558 21.2788 26.3818 21.2788C25.5267 21.2788 24.9456 20.6619 24.9456 19.5101C24.9456 18.2302 25.7438 17.7651 26.3591 17.7651C27.1115 17.7651 27.2369 18.1609 27.761 18.1609C28.3654 18.1609 28.7758 17.649 28.7758 17.1139C28.7758 16.7181 28.6045 16.416 28.3428 16.2062C27.8638 15.8453 27.1916 15.5781 26.1885 15.5781C24.4214 15.5781 22.7002 16.7649 22.7002 19.5107C22.6996 22.1391 24.4208 23.3609 26.1194 23.3609Z" fill="#D62300"/>
<path d="M6.07975 23.291H7.68718C9.20349 23.291 10.1265 22.2553 10.1265 20.9642C10.1265 19.9284 9.52215 19.4515 9.38574 19.3353C9.32885 19.2885 9.27196 19.2423 9.27196 19.1955C9.27196 19.1374 9.30625 19.1143 9.36314 19.0444C9.57963 18.7884 9.79616 18.3814 9.79616 17.7876C9.79616 16.3917 8.87259 15.6469 7.4364 15.6469H6.07975C5.17941 15.6469 4.74634 16.1825 4.74634 16.9036V22.0343C4.74634 22.756 5.17941 23.291 6.07975 23.291ZM6.75255 17.6484C6.75255 17.4973 6.84372 17.3806 7.03762 17.3806H7.18563C7.67554 17.3806 7.82419 17.7296 7.82419 18.0324C7.82419 18.3114 7.67618 18.7072 7.18563 18.7072H7.03762C6.84372 18.7072 6.75255 18.5911 6.75255 18.4394V17.6484ZM6.75255 20.3711C6.75255 20.22 6.84372 20.1032 7.03762 20.1032H7.24251C7.78995 20.1032 7.94896 20.4753 7.94896 20.8131C7.94896 21.1159 7.78931 21.546 7.24251 21.546H7.03762C6.84372 21.546 6.75255 21.4299 6.75255 21.2782V20.3711Z" fill="#D62300"/>
<path d="M35.8423 23.3491C36.5721 23.3491 36.9709 22.7903 36.9709 22.0923V20.8593C36.9709 20.7082 37.0394 20.6383 37.1531 20.6383C37.2902 20.6383 37.3354 20.7194 37.3581 20.8593C37.4608 21.4524 37.7342 22.2552 38.0419 22.6629C38.4296 23.1867 38.7942 23.3497 39.1587 23.3497C39.7515 23.3497 40.2646 22.8727 40.2646 22.279C40.2646 21.8832 40.105 21.5922 39.9001 21.325C39.5123 20.8249 39.2732 20.499 39.1251 20.092C39.0909 19.999 39.1135 19.9172 39.2163 19.836C39.5698 19.5569 39.9802 18.9401 39.9802 17.9631C39.9802 16.4853 38.7832 15.6475 37.3354 15.6475H36.0472C35.1469 15.6475 34.7139 16.1825 34.7139 16.9042V22.0935C34.7139 22.7909 35.1127 23.3491 35.8423 23.3491ZM36.8454 17.8463C36.8454 17.6952 36.9366 17.5785 37.1305 17.5785H37.2902C37.7691 17.5785 37.9171 17.9275 37.9171 18.2303C37.9171 18.5212 37.7691 18.9052 37.2902 18.9052H37.1305C36.9366 18.9052 36.8454 18.789 36.8454 18.6373V17.8463Z" fill="#D62300"/>
<path d="M17.1024 24.0239C15.8259 24.0239 15.1304 25.001 15.1304 26.2227V33.1108C15.1304 34.3326 15.8259 35.3097 17.1024 35.3097C18.3789 35.3097 19.0744 34.3326 19.0744 33.1108V26.2227C19.0744 25.0016 18.3795 24.0239 17.1024 24.0239Z" fill="#D62300"/>
<path d="M37.3696 28.5033H36.8112C35.8081 28.5033 35.0331 28.9803 35.0331 30.0272C35.0331 30.9812 35.8766 31.4351 36.5035 31.4351C36.8112 31.4351 37.0277 31.5281 37.0277 31.7722C37.0277 32.075 36.6632 32.2723 36.2754 32.2723C34.9872 32.2723 34.1095 31.3764 34.1095 29.7126C34.1095 27.8627 35.3065 27.1878 36.2295 27.1878C37.358 27.1878 37.5403 27.7697 38.3269 27.7697C39.2389 27.7697 39.8542 27.0137 39.8542 26.2457C39.8542 25.6757 39.6034 25.2337 39.2046 24.9309C38.5092 24.4071 37.4608 24.0232 35.9787 24.0232C33.3229 24.0232 30.735 25.7332 30.735 29.7126C30.735 33.5172 33.3223 35.2971 35.876 35.2971C38.5544 35.2971 40.253 33.6102 40.253 31.1435C40.2536 29.5852 39.2963 28.5033 37.3696 28.5033Z" fill="#D62300"/>
<path d="M33.0612 23.2909C33.6997 23.2909 34.2013 22.907 34.2013 22.209C34.2013 21.5222 33.6997 21.1383 33.0612 21.1383H32.0354C31.8415 21.1383 31.7504 21.0221 31.7504 20.8704V20.6494C31.7504 20.4983 31.8415 20.3816 32.0354 20.3816H32.822C33.3694 20.3816 33.8025 20.0445 33.8025 19.4507C33.8025 18.8576 33.3694 18.5199 32.822 18.5199H32.0354C31.8415 18.5199 31.7504 18.4037 31.7504 18.252V18.066C31.7504 17.9149 31.8415 17.7982 32.0354 17.7982H33.0612C33.6997 17.7982 34.2013 17.4142 34.2013 16.7162C34.2013 16.0295 33.6997 15.6455 33.0612 15.6455H30.9069C30.0066 15.6455 29.5735 16.1806 29.5735 16.9023V22.0329C29.5735 22.754 30.0066 23.2897 30.9069 23.2897H33.0612V23.2909Z" fill="#D62300"/>
<path d="M13.4777 23.349C15.3243 23.349 16.3048 22.2202 16.3048 20.8011V16.8804C16.3048 16.1824 15.906 15.6237 15.1762 15.6237C14.4466 15.6237 14.0478 16.1824 14.0478 16.8804V20.6731C14.0478 20.9522 13.8881 21.2781 13.4777 21.2781C13.0673 21.2781 12.9303 20.9522 12.9303 20.6731V16.8804C12.9303 16.1824 12.5198 15.6237 11.7901 15.6237C11.0604 15.6237 10.6616 16.1824 10.6616 16.8804V20.8011C10.6623 22.2208 11.6311 23.349 13.4777 23.349Z" fill="#D62300"/>
<path d="M21.4801 23.3491C22.0727 23.3491 22.5859 22.872 22.5859 22.2783C22.5859 21.8825 22.4263 21.5916 22.2214 21.3244C21.8911 20.8824 21.5944 20.4984 21.4464 20.0913C21.4122 19.9983 21.4348 19.9166 21.5375 19.8354C21.8911 19.5563 22.3015 18.9395 22.3015 17.9625C22.3015 16.4847 21.1045 15.6469 19.6567 15.6469H18.368C17.4676 15.6469 17.0345 16.1819 17.0345 16.9036V22.0929C17.0345 22.7909 17.4333 23.3497 18.163 23.3497C18.8928 23.3497 19.2915 22.7909 19.2915 22.0929V20.8599C19.2915 20.7088 19.3601 20.6389 19.4738 20.6389C19.6108 20.6389 19.6561 20.7201 19.6787 20.8599C19.7815 21.453 20.0549 22.2559 20.3625 22.6636C20.7503 23.1861 21.1149 23.3491 21.4801 23.3491ZM19.6102 18.9045H19.4506C19.2567 18.9045 19.1655 18.7884 19.1655 18.6367V17.8463C19.1655 17.6952 19.2567 17.5785 19.4506 17.5785H19.6102C20.0892 17.5785 20.2372 17.9275 20.2372 18.2303C20.2372 18.5206 20.0892 18.9045 19.6102 18.9045Z" fill="#D62300"/>
<path d="M28.034 24.0239C26.8596 24.0239 26.2217 24.9198 26.2217 26.0486V28.5614C26.2217 28.7706 26.1531 28.8642 26.0278 28.8642C25.9366 28.8642 25.8681 28.8062 25.7886 28.6432L24.2044 25.5017C23.6001 24.303 22.9731 24.0239 22.2551 24.0239C21.0581 24.0239 20.3969 24.9429 20.3969 26.0948V33.2856C20.3969 34.4144 21.0354 35.3103 22.2092 35.3103C23.3836 35.3103 24.0216 34.4144 24.0216 33.2856V30.7728C24.0216 30.5636 24.09 30.47 24.2154 30.47C24.3066 30.47 24.375 30.528 24.4546 30.691L26.0388 33.8325C26.6431 35.0312 27.2927 35.3103 27.9881 35.3103C29.1852 35.3103 29.8463 34.3913 29.8463 33.2394V26.0486C29.8463 24.9198 29.2084 24.0239 28.034 24.0239Z" fill="#D62300"/>
<path d="M38.6486 42.0098C38.6486 41.697 38.8859 41.4354 39.2113 41.4354C39.5367 41.4354 39.774 41.697 39.774 42.0098C39.774 42.3457 39.5367 42.5879 39.2113 42.5879C38.8859 42.5885 38.6486 42.3419 38.6486 42.0098ZM39.6517 42.0098C39.6517 41.7207 39.4297 41.5528 39.2113 41.5528C38.9929 41.5528 38.7709 41.7207 38.7709 42.0098C38.7709 42.3107 38.9929 42.4705 39.2113 42.4705C39.4297 42.4705 39.6517 42.3107 39.6517 42.0098ZM39.0161 42.2564V41.7682C39.0161 41.737 39.0431 41.7058 39.0737 41.7058H39.2345C39.3605 41.7058 39.4486 41.7838 39.4486 41.8893C39.4486 41.9792 39.399 42.0572 39.2841 42.0766L39.4101 42.2214C39.4217 42.2333 39.429 42.2489 39.429 42.2601C39.429 42.2951 39.4058 42.3188 39.3715 42.3188C39.3483 42.3188 39.333 42.307 39.322 42.2914L39.1538 42.0885H39.1348V42.2564C39.1348 42.2876 39.1079 42.3151 39.0737 42.3151C39.0431 42.3145 39.0161 42.2876 39.0161 42.2564ZM39.2192 41.9786C39.2883 41.9786 39.3262 41.9436 39.3262 41.8968C39.3262 41.8462 39.292 41.8188 39.2309 41.8188H39.1354V41.9792H39.2192V41.9786Z" fill="#D62300"/>
</g>
<defs>
<clipPath id="clip0_46_20">
<rect width="45" height="48" fill="white" transform="translate(0 0.5)"/>
</clipPath>
</defs>
</svg>
