<svg width="69" height="47" viewBox="0 0 69 47" fill="none" xmlns="http://www.w3.org/2000/svg">
<path d="M55.6313 17.865C54.6655 12.9709 52.0306 8.56397 48.1766 5.39683C44.3225 2.22969 39.4884 0.498872 34.5 0.500001C26.1912 0.500001 18.975 5.215 15.3812 12.115C11.1557 12.5716 7.24789 14.5737 4.40878 17.7365C1.56967 20.8994 -0.000493643 24.9998 1.16417e-07 29.25C1.16417e-07 38.7663 7.73375 46.5 17.25 46.5H54.625C62.56 46.5 69 40.06 69 32.125C69 24.535 63.1063 18.3825 55.6313 17.865ZM54.625 40.75H17.25C10.8962 40.75 5.75 35.6037 5.75 29.25C5.75 23.3563 10.1488 18.44 15.985 17.8362L19.0613 17.52L20.4988 14.7888C21.8209 12.215 23.8276 10.056 26.298 8.54941C28.7683 7.04285 31.6065 6.24718 34.5 6.25C42.0325 6.25 48.53 11.5975 49.9962 18.9863L50.8588 23.2988L55.2575 23.615C57.4187 23.7604 59.4447 24.719 60.9276 26.2979C62.4105 27.8769 63.2403 29.9589 63.25 32.125C63.25 36.8688 59.3688 40.75 54.625 40.75ZM38.6688 17.75H30.3313V26.375H23L34.5 37.875L46 26.375H38.6688V17.75Z" fill="black"/>
</svg>
