<svg width="16" height="15" viewBox="0 0 16 15" fill="none" xmlns="http://www.w3.org/2000/svg">
<path d="M14.8862 0H0.957589C0.661272 0 0.421875 0.304688 0.421875 0.681818V14.3182C0.421875 14.6953 0.661272 15 0.957589 15H14.8862C15.1825 15 15.4219 14.6953 15.4219 14.3182V0.681818C15.4219 0.304688 15.1825 0 14.8862 0ZM14.2165 2.3608V13.4659H1.62723V2.3608L1.16518 1.9027L1.8231 0.826705L2.53962 1.53622H13.3058L14.0223 0.826705L14.6802 1.9027L14.2165 2.3608ZM13.3058 1.53409L7.92188 6.8608L2.53795 1.53409L1.82143 0.824574L1.1635 1.90057L1.62556 2.35866L7.34431 8.01776C7.50877 8.18037 7.7111 8.26865 7.91936 8.26865C8.12763 8.26865 8.32996 8.18037 8.49442 8.01776L14.2165 2.3608L14.6786 1.9027L14.0206 0.826705L13.3058 1.53409Z" fill="white"/>
</svg>
