<svg width="16" height="15" viewBox="0 0 16 15" fill="none" xmlns="http://www.w3.org/2000/svg">
<path d="M14.7718 12.293H13.7398C13.6593 12.293 13.5921 12.3613 13.5921 12.4434V13.6504H1.513V1.34961H13.594V2.55664C13.594 2.63867 13.6612 2.70703 13.7417 2.70703H14.7737C14.8543 2.70703 14.9214 2.64062 14.9214 2.55664V0.599609C14.9214 0.267578 14.6587 0 14.3326 0H0.776398C0.450298 0 0.1875 0.267578 0.1875 0.599609V14.4004C0.1875 14.7324 0.450298 15 0.776398 15H14.3306C14.6567 15 14.9195 14.7324 14.9195 14.4004V12.4434C14.9195 12.3594 14.8524 12.293 14.7718 12.293ZM15.1286 7.37695L12.4066 5.18945C12.305 5.10742 12.1573 5.18164 12.1573 5.3125V6.79688H6.13402C6.04962 6.79688 5.98056 6.86719 5.98056 6.95312V8.04688C5.98056 8.13281 6.04962 8.20312 6.13402 8.20312H12.1573V9.6875C12.1573 9.81836 12.3069 9.89258 12.4066 9.81055L15.1286 7.62305C15.147 7.60843 15.1618 7.58976 15.172 7.56844C15.1822 7.54712 15.1875 7.52371 15.1875 7.5C15.1875 7.47629 15.1822 7.45288 15.172 7.43156C15.1618 7.41024 15.147 7.39157 15.1286 7.37695Z" fill="black"/>
</svg>
