<svg width="20" height="13" viewBox="0 0 20 13" fill="none" xmlns="http://www.w3.org/2000/svg">
<path d="M9.76465 4.00449C10.29 4.00449 10.8102 4.10796 11.2956 4.30901C11.7809 4.51005 12.222 4.80473 12.5934 5.17621C12.9649 5.54769 13.2596 5.9887 13.4606 6.47406C13.6617 6.95943 13.7652 7.47964 13.7652 8.00499C13.7652 8.53034 13.6617 9.05055 13.4606 9.53591C13.2596 10.0213 12.9649 10.4623 12.5934 10.8338C12.222 11.2052 11.7809 11.4999 11.2956 11.701C10.8102 11.902 10.29 12.0055 9.76465 12.0055C8.70365 12.0055 7.68611 11.584 6.93587 10.8338C6.18563 10.0835 5.76415 9.06599 5.76415 8.00499C5.76415 6.94399 6.18563 5.92645 6.93587 5.17621C7.68611 4.42597 8.70365 4.00449 9.76465 4.00449ZM9.76465 5.50449C9.10148 5.50449 8.46547 5.76793 7.99653 6.23687C7.5276 6.7058 7.26415 7.34181 7.26415 8.00499C7.26415 8.66816 7.5276 9.30417 7.99653 9.77311C8.46547 10.242 9.10148 10.5055 9.76465 10.5055C10.4278 10.5055 11.0638 10.242 11.5328 9.77311C12.0017 9.30417 12.2652 8.66816 12.2652 8.00499C12.2652 7.34181 12.0017 6.7058 11.5328 6.23687C11.0638 5.76793 10.4278 5.50449 9.76465 5.50449ZM9.76465 0.500488C14.3787 0.500488 18.3597 3.65049 19.4652 8.06499C19.4916 8.16138 19.4985 8.26209 19.4854 8.36119C19.4724 8.46028 19.4397 8.55578 19.3892 8.64205C19.3387 8.72832 19.2715 8.80364 19.1915 8.86357C19.1115 8.9235 19.0204 8.96684 18.9234 8.99103C18.8264 9.01523 18.7256 9.01979 18.6268 9.00446C18.528 8.98913 18.4333 8.95421 18.3483 8.90175C18.2632 8.8493 18.1894 8.78037 18.1314 8.69901C18.0733 8.61765 18.0321 8.5255 18.0102 8.42799C17.546 6.5924 16.4826 4.96417 14.9885 3.80125C13.4944 2.63832 11.6549 2.00722 9.76157 2.00791C7.8682 2.00859 6.02921 2.64104 4.53592 3.80505C3.04264 4.96905 1.98045 6.59806 1.51765 8.43399C1.46817 8.62569 1.3449 8.79005 1.17471 8.89122C1.00453 8.99239 0.801248 9.02217 0.609198 8.97406C0.417148 8.92595 0.251912 8.80385 0.149527 8.6344C0.0471413 8.46494 0.0159125 8.26188 0.0626512 8.06949C0.605194 5.90718 1.85448 3.98805 3.6122 2.61677C5.36991 1.2455 7.53531 0.500654 9.76465 0.500488Z" fill="black"/>
</svg>
