<?xml version="1.0" encoding="UTF-8" standalone="no"?>
<svg
   width="20"
   height="13"
   viewBox="0 0 20 13"
   fill="none"
   version="1.1"
   id="svg142"
   sodipodi:docname="eye-close.svg"
   inkscape:version="1.2 (dc2aedaf03, 2022-05-15)"
   xmlns:inkscape="http://www.inkscape.org/namespaces/inkscape"
   xmlns:sodipodi="http://sodipodi.sourceforge.net/DTD/sodipodi-0.dtd"
   xmlns="http://www.w3.org/2000/svg"
   xmlns:svg="http://www.w3.org/2000/svg">
  <defs
     id="defs146">
    <inkscape:path-effect
       effect="bspline"
       id="path-effect1018"
       is_visible="true"
       lpeversion="1"
       weight="33.333333"
       steps="2"
       helper_size="0"
       apply_no_weight="true"
       apply_with_weight="true"
       only_selected="false" />
  </defs>
  <sodipodi:namedview
     id="namedview144"
     pagecolor="#ffffff"
     bordercolor="#000000"
     borderopacity="0.25"
     inkscape:showpageshadow="2"
     inkscape:pageopacity="0.0"
     inkscape:pagecheckerboard="0"
     inkscape:deskcolor="#d1d1d1"
     showgrid="false"
     inkscape:zoom="13.6526"
     inkscape:cx="3.5524369"
     inkscape:cy="7.8373349"
     inkscape:window-width="1366"
     inkscape:window-height="705"
     inkscape:window-x="-8"
     inkscape:window-y="-8"
     inkscape:window-maximized="1"
     inkscape:current-layer="svg142" />
  <rect
     style="opacity:0.925697;fill:#000000;fill-opacity:1"
     id="rect1020"
     width="16.75498"
     height="0.93227094"
     x="-4.4013062"
     y="11.38167"
     transform="rotate(-37.288514)" />
  <path
     d="m 9.76465,4.00449 c 0.52535,0 1.04555,0.10347 1.53095,0.30452 0.4853,0.20104 0.9264,0.49572 1.2978,0.8672 0.3715,0.37148 0.6662,0.81249 0.8672,1.29785 0.2011,0.48537 0.3046,1.00558 0.3046,1.53093 0,0.52535 -0.1035,1.04556 -0.3046,1.53092 -0.201,0.48539 -0.4957,0.92639 -0.8672,1.29789 -0.3714,0.3714 -0.8125,0.6661 -1.2978,0.8672 -0.4854,0.201 -1.0056,0.3045 -1.53095,0.3045 -1.061,0 -2.07854,-0.4215 -2.82878,-1.1717 C 6.18563,10.0835 5.76415,9.06599 5.76415,8.00499 c 0,-1.061 0.42148,-2.07854 1.17172,-2.82878 C 7.68611,4.42597 8.70365,4.00449 9.76465,4.00449 Z m 0,1.5 c -0.66317,0 -1.29918,0.26344 -1.76812,0.73238 C 7.5276,6.7058 7.26415,7.34181 7.26415,8.00499 c 0,0.66317 0.26345,1.29918 0.73238,1.76812 0.46894,0.46889 1.10495,0.73239 1.76812,0.73239 0.66315,0 1.29915,-0.2635 1.76815,-0.73239 0.4689,-0.46894 0.7324,-1.10495 0.7324,-1.76812 0,-0.66318 -0.2635,-1.29919 -0.7324,-1.76812 -0.469,-0.46894 -1.105,-0.73238 -1.76815,-0.73238 z m 0,-5.004002 c 4.61405,0 8.59505,3.150002 9.70055,7.564502 0.0264,0.09639 0.0333,0.1971 0.0202,0.2962 -0.013,0.09909 -0.0457,0.19459 -0.0962,0.28086 -0.0505,0.08627 -0.1177,0.16159 -0.1977,0.22152 -0.08,0.05993 -0.1711,0.10327 -0.2681,0.12746 -0.097,0.0242 -0.1978,0.02876 -0.2966,0.01343 C 18.528,8.98913 18.4333,8.95421 18.3483,8.90175 18.2632,8.8493 18.1894,8.78037 18.1314,8.69901 18.0733,8.61765 18.0321,8.5255 18.0102,8.42799 17.546,6.5924 16.4826,4.96417 14.9885,3.80125 13.4944,2.63832 11.6549,2.00722 9.76157,2.00791 7.8682,2.00859 6.02921,2.64104 4.53592,3.80505 3.04264,4.96905 1.98045,6.59806 1.51765,8.43399 1.46817,8.62569 1.3449,8.79005 1.17471,8.89122 1.00453,8.99239 0.801248,9.02217 0.609198,8.97406 0.417148,8.92595 0.251912,8.80385 0.149527,8.6344 0.0471413,8.46494 0.0159125,8.26188 0.0626512,8.06949 0.605194,5.90718 1.85448,3.98805 3.6122,2.61677 5.36991,1.2455 7.53531,0.500654 9.76465,0.500488 Z"
     fill="#000000"
     id="path140"
     style="display:inline" />
</svg>
