<svg width="16" height="16" viewBox="0 0 16 16" fill="none" xmlns="http://www.w3.org/2000/svg">
<path d="M7.69905 0.832764C9.34207 0.832764 10.6728 2.11152 10.6728 3.68844C10.6691 4.41275 10.1599 5.10783 9.64688 5.63401L11.2713 5.43588C11.2341 5.55931 11.223 5.69898 11.2788 5.84514C11.3531 6.03677 11.5613 6.15045 11.7211 6.19268C11.8847 6.23165 12.0296 6.2349 12.1597 6.2414C12.6467 6.22841 12.3828 6.35508 12.1746 6.53047C12.0631 6.62467 11.933 6.7286 11.8289 6.86827C11.7211 7.01118 11.6393 7.22555 11.7211 7.43343C11.7992 7.63156 12.0036 7.75174 12.1709 7.8037C12.3382 7.85242 12.498 7.86542 12.6393 7.87841C12.9478 7.92388 13.0742 7.86866 12.9589 8.135C12.9106 8.23894 12.8251 8.36562 12.7285 8.48254L10.3011 9.08993C10.7546 10.2755 11.4163 11.6656 12.011 12.9356C11.9553 12.9161 11.8995 12.8999 11.8401 12.8869C11.6133 12.8284 11.3531 12.8349 11.1524 12.9291C10.9516 13.0266 10.8587 13.2247 10.8438 13.3708C10.8252 13.517 10.8476 13.6437 10.8661 13.7574C10.9554 14.1731 10.7844 13.975 10.5427 13.8223C10.4126 13.7444 10.2714 13.6502 10.0967 13.5852C9.91824 13.5203 9.66175 13.4878 9.44243 13.5982C9.23427 13.6989 9.13762 13.8938 9.10788 14.0497C9.10417 14.0724 9.10045 14.0952 9.10045 14.1179C8.77333 13.5332 8.26779 12.8479 7.69905 12.8479C7.13031 12.8479 6.62477 13.5332 6.29765 14.1179C6.29765 14.0952 6.29393 14.0724 6.29022 14.0497C6.26048 13.8938 6.16383 13.6989 5.95566 13.5982C5.73635 13.4878 5.47986 13.5203 5.30143 13.5852C5.12672 13.6502 4.98546 13.7444 4.85536 13.8223C4.4985 14.0237 4.47992 14.1309 4.53196 13.7574C4.55055 13.6437 4.57285 13.517 4.55426 13.3708C4.53939 13.2247 4.44646 13.0266 4.24573 12.9291C4.1305 12.8739 4.01155 12.8512 3.8926 12.8479C3.77736 12.8447 3.66213 12.8609 3.55804 12.8869C3.49857 12.8999 3.44281 12.9161 3.38333 12.9356C3.97809 11.6689 4.63976 10.2852 5.09326 9.10292L2.67706 8.48904C2.57669 8.37211 2.48748 8.24219 2.43915 8.135C2.30162 7.87191 2.54324 7.90439 2.75884 7.87841C2.90009 7.86542 3.05993 7.85242 3.22721 7.8037C3.39448 7.75174 3.59893 7.63156 3.67699 7.43343C3.75877 7.22555 3.67699 7.01118 3.56919 6.86827C3.46511 6.7286 3.33501 6.62467 3.22349 6.53047C2.9447 6.26413 2.79973 6.25439 3.23836 6.2414C3.36846 6.2349 3.51344 6.23165 3.67699 6.19268C3.83684 6.15045 4.045 6.03677 4.11935 5.84514C4.1751 5.70222 4.16395 5.56256 4.12678 5.43588L5.76237 5.64051C5.24195 5.11433 4.72897 4.416 4.72526 3.68844C4.72526 2.11152 6.05603 0.832764 7.69905 0.832764ZM8.88857 2.97485C8.56145 2.97485 8.29381 3.20708 8.29381 3.49356C8.29381 3.77938 8.56145 4.01324 8.88857 4.01324C9.21568 4.01324 9.48332 3.77938 9.48332 3.49356C9.48332 3.20708 9.21568 2.97485 8.88857 2.97485ZM6.50953 2.97485C6.18241 2.97485 5.91477 3.20708 5.91477 3.49356C5.91477 3.77938 6.18241 4.01324 6.50953 4.01324C6.83665 4.01324 7.10429 3.77938 7.10429 3.49356C7.10429 3.20708 6.83665 2.97485 6.50953 2.97485ZM9.24542 4.32505C8.69155 4.81226 8.18229 5.02014 7.69905 5.02014C7.21581 5.02014 6.70655 4.81226 6.15268 4.32505L5.67687 4.7408C6.31252 5.29297 6.99277 5.60478 7.69905 5.60478C8.40532 5.60478 9.08558 5.29297 9.72123 4.7408L9.24542 4.32505ZM12.7917 5.2475C15.7658 5.2475 15.7658 7.65105 13.9816 8.17073L13.6165 8.26168C13.6764 8.10252 13.7046 7.92713 13.6321 7.74524C13.5541 7.54711 13.3493 7.42693 13.182 7.37496C13.0147 7.32624 12.8549 7.31325 12.7136 7.30026C12.1858 7.25803 12.3642 7.17683 12.643 6.94947C12.7545 6.85203 12.8846 6.74809 12.9887 6.60518C13.0928 6.46551 13.1708 6.24465 13.0816 6.03677C12.9998 5.84839 12.7917 5.7412 12.6281 5.70222C12.3828 5.64051 12.1597 5.67949 11.9144 5.63077C11.9293 5.51709 11.9962 5.42939 12.0631 5.33844L12.7917 5.2475ZM2.60643 5.2475L3.33501 5.33844C3.40192 5.42939 3.47255 5.52033 3.4837 5.63077C3.24208 5.66974 2.98559 5.65025 2.76999 5.70222C2.60643 5.7412 2.39826 5.84839 2.31649 6.03677C2.22727 6.24465 2.30533 6.46551 2.40942 6.60518C2.5135 6.74809 2.6436 6.85203 2.75512 6.94947C3.13799 7.28077 3.14915 7.24829 2.68449 7.30026C2.54324 7.31325 2.38339 7.32624 2.21612 7.37496C2.04884 7.42693 1.84439 7.54711 1.76633 7.74524C1.6957 7.92713 1.72173 8.10252 1.7812 8.26493L1.41691 8.17073C-0.367362 7.65105 -0.367363 5.2475 2.60643 5.2475ZM9.48332 6.22191L8.26035 6.84553C8.17857 6.63441 7.95182 6.49474 7.69905 6.49474C7.44628 6.49474 7.21952 6.63441 7.13775 6.84553L5.91477 6.22191V7.78097L7.20837 7.31C7.31989 7.44967 7.50204 7.53412 7.69905 7.53412C7.89606 7.53412 8.07821 7.44967 8.18972 7.31L9.48332 7.78097V6.22191ZM7.69905 8.17073C7.37193 8.17073 7.10429 8.40459 7.10429 8.69042C7.10429 8.97625 7.37193 9.21011 7.69905 9.21011C8.02617 9.21011 8.29381 8.97625 8.29381 8.69042C8.29381 8.40459 8.02617 8.17073 7.69905 8.17073ZM7.69905 9.85971C7.37193 9.85971 7.10429 10.0936 7.10429 10.3794C7.10429 10.6652 7.37193 10.8991 7.69905 10.8991C8.02617 10.8991 8.29381 10.6652 8.29381 10.3794C8.29381 10.0936 8.02617 9.85971 7.69905 9.85971ZM11.5575 13.4358C11.5836 13.4358 11.6207 13.4391 11.6691 13.452C11.7917 13.478 11.9479 13.5397 12.0928 13.6112C12.2527 13.6924 12.3902 13.7411 12.4571 13.8873C13.5953 15.8751 10.9219 16.437 9.64688 15.1183C9.71751 15.0273 9.75468 14.9299 9.76955 14.8422C9.79557 14.6863 9.78442 14.5499 9.77327 14.4265C9.77699 14.3225 9.74725 14.2088 9.77699 14.1081C9.8662 14.1244 10.0558 14.2413 10.1524 14.2998C10.2825 14.381 10.4238 14.4719 10.6022 14.5369C10.7769 14.6018 11.0408 14.6278 11.2564 14.5142H11.2602C11.4572 14.407 11.539 14.2088 11.5538 14.0659C11.5687 13.9198 11.5464 13.7931 11.5278 13.6827C11.5129 13.5722 11.5055 13.4813 11.5092 13.4358H11.5575ZM3.88888 13.4358C3.89259 13.4813 3.88516 13.5722 3.87029 13.6827C3.8517 13.7931 3.8294 13.9198 3.84427 14.0659C3.85914 14.2088 3.94092 14.407 4.13793 14.5142H4.14165C4.35725 14.6278 4.62117 14.6018 4.79588 14.5369C4.97431 14.4719 5.11557 14.381 5.24567 14.2998C5.36462 14.2316 5.49473 14.1406 5.62111 14.1081C5.6397 14.2056 5.62855 14.3388 5.62483 14.4265C5.61368 14.5499 5.60252 14.6863 5.62855 14.8422C5.64341 14.9299 5.68059 15.0273 5.75122 15.1183C4.4762 16.437 1.80351 15.8751 2.94098 13.8873C2.9893 13.7411 3.1826 13.6729 3.30527 13.6112C3.45024 13.5397 3.60637 13.478 3.72904 13.452C3.78108 13.4358 3.83312 13.4358 3.88888 13.4358Z" fill="black"/>
</svg>
