<svg width="362" height="34" viewBox="0 0 362 34" fill="none" xmlns="http://www.w3.org/2000/svg">
<g filter="url(#filter0_d_71_169)">
<path d="M21.976 2.688C22.468 2.93436 22.7488 3.31524 22.816 3.8304C22.9048 4.34556 22.7824 4.81596 22.4464 5.2416C22.1992 5.5776 21.8752 5.76804 21.472 5.8128C21.0904 5.85756 20.71 5.7792 20.3296 5.5776C19.6792 5.2416 18.9964 4.9728 18.28 4.7712C17.5624 4.5696 16.8016 4.4688 15.9952 4.4688C14.7184 4.4688 13.564 4.68156 12.5344 5.1072C11.5264 5.5104 10.6528 6.10404 9.91359 6.888C9.17439 7.64964 8.6032 8.55684 8.2 9.6096C7.8184 10.6624 7.6288 11.8272 7.6288 13.104C7.6288 14.5152 7.8412 15.7696 8.2672 16.8672C8.692 17.9424 9.27519 18.8608 10.0144 19.6224C10.7752 20.3616 11.6608 20.9216 12.6688 21.3024C13.6984 21.6608 14.8072 21.84 15.9952 21.84C16.756 21.84 17.4952 21.7504 18.2128 21.5712C18.952 21.392 19.6456 21.1232 20.296 20.7648C20.6992 20.5632 21.0904 20.496 21.472 20.5632C21.8752 20.608 22.1992 20.7984 22.4464 21.1344C22.8268 21.6048 22.9612 22.0864 22.8496 22.5792C22.7596 23.0496 22.48 23.408 22.0096 23.6544C21.4492 23.968 20.8336 24.2368 20.1616 24.4608C19.4896 24.6848 18.8056 24.864 18.112 24.9984C17.4172 25.1328 16.7116 25.2 15.9952 25.2C14.3824 25.2 12.8584 24.9312 11.4256 24.3936C9.9916 23.856 8.7148 23.072 7.5952 22.0416C6.4744 21.0112 5.59 19.7456 4.9408 18.2448C4.3132 16.744 4 15.0304 4 13.104C4 11.3792 4.2904 9.78876 4.8736 8.3328C5.4784 6.8544 6.3184 5.58876 7.3936 4.536C8.4904 3.4608 9.76721 2.63196 11.224 2.0496C12.6796 1.4448 14.2696 1.1424 15.9952 1.1424C17.0704 1.1424 18.112 1.2768 19.12 1.5456C20.1496 1.8144 21.1024 2.19516 21.976 2.688ZM29.896 23.1504C29.896 23.6432 29.728 24.0576 29.392 24.3936C29.0788 24.7072 28.6864 24.864 28.216 24.864C27.7456 24.864 27.3424 24.7072 27.0064 24.3936C26.6932 24.0576 26.536 23.6432 26.536 23.1504V1.7136C26.536 1.22076 26.704 0.81756 27.04 0.504C27.376 0.168 27.7792 0 28.2496 0C28.7428 0 29.1352 0.168 29.4256 0.504C29.74 0.81756 29.896 1.22076 29.896 1.7136V23.1504ZM49.3792 6.9216C49.8724 6.9216 50.2756 7.0896 50.5888 7.4256C50.902 7.73916 51.0592 8.14236 51.0592 8.6352V23.1504C51.0592 23.6432 50.902 24.0576 50.5888 24.3936C50.2756 24.7072 49.8724 24.864 49.3792 24.864C48.9088 24.864 48.5056 24.7072 48.1696 24.3936C47.8564 24.0576 47.6992 23.6432 47.6992 23.1504V20.7312L48.4048 20.832C48.4048 21.2352 48.2368 21.6832 47.9008 22.176C47.5876 22.6688 47.1508 23.1504 46.5904 23.6208C46.03 24.0688 45.37 24.4496 44.608 24.7632C43.846 25.0544 43.0288 25.2 42.1552 25.2C40.6096 25.2 39.2212 24.808 37.9888 24.024C36.7564 23.2176 35.782 22.12 35.0656 20.7312C34.3492 19.3424 33.9904 17.7632 33.9904 15.9936C33.9904 14.1792 34.3492 12.5888 35.0656 11.2224C35.782 9.83364 36.7456 8.74716 37.9552 7.9632C39.1876 7.17924 40.5532 6.7872 42.0544 6.7872C43.018 6.7872 43.9024 6.94404 44.7088 7.2576C45.538 7.57116 46.2544 7.97436 46.8592 8.4672C47.464 8.96004 47.9236 9.48636 48.2368 10.0464C48.5728 10.584 48.7408 11.0992 48.7408 11.592L47.6992 11.6928V8.6352C47.6992 8.1648 47.8564 7.7616 48.1696 7.4256C48.5056 7.0896 48.9088 6.9216 49.3792 6.9216ZM42.5248 22.1088C43.5772 22.1088 44.5072 21.84 45.3136 21.3024C46.12 20.7648 46.7476 20.0368 47.1952 19.1184C47.6428 18.1776 47.8672 17.136 47.8672 15.9936C47.8672 14.8288 47.6428 13.7872 47.1952 12.8688C46.7476 11.9504 46.12 11.2224 45.3136 10.6848C44.5072 10.1472 43.5772 9.8784 42.5248 9.8784C41.494 9.8784 40.576 10.1472 39.7696 10.6848C38.986 11.2224 38.3584 11.9504 37.888 12.8688C37.4404 13.7872 37.216 14.8288 37.216 15.9936C37.216 17.136 37.4404 18.1776 37.888 19.1184C38.3584 20.0368 38.986 20.7648 39.7696 21.3024C40.576 21.84 41.494 22.1088 42.5248 22.1088ZM68.6092 7.1904C69.0796 7.1904 69.472 7.3584 69.7852 7.6944C70.1212 8.00796 70.2892 8.41116 70.2892 8.904V17.7408C70.2892 20.0704 69.64 21.896 68.3404 23.2176C67.0408 24.5168 65.2048 25.1664 62.83 25.1664C60.478 25.1664 58.6528 24.5168 57.3532 23.2176C56.0764 21.896 55.438 20.0704 55.438 17.7408V8.904C55.438 8.41116 55.5952 8.00796 55.9084 7.6944C56.2216 7.3584 56.6248 7.1904 57.118 7.1904C57.5884 7.1904 57.9808 7.3584 58.294 7.6944C58.63 8.00796 58.798 8.41116 58.798 8.904V17.7408C58.798 19.1968 59.134 20.2832 59.806 21C60.5008 21.7168 61.5088 22.0752 62.83 22.0752C64.174 22.0752 65.1928 21.7168 65.8876 21C66.5824 20.2832 66.9292 19.1968 66.9292 17.7408V8.904C66.9292 8.41116 67.0864 8.00796 67.3996 7.6944C67.7128 7.3584 68.116 7.1904 68.6092 7.1904ZM89.4436 0C89.9356 0 90.3388 0.15684 90.6532 0.4704C90.9664 0.78396 91.1236 1.19844 91.1236 1.7136V23.1504C91.1236 23.6432 90.9664 24.0576 90.6532 24.3936C90.3388 24.7072 89.9356 24.864 89.4436 24.864C88.9732 24.864 88.57 24.7072 88.234 24.3936C87.9196 24.0576 87.7636 23.6432 87.7636 23.1504V20.7312L88.4692 20.7648C88.4692 21.168 88.3012 21.6272 87.9652 22.1424C87.6508 22.6352 87.214 23.1168 86.6548 23.5872C86.0944 24.0576 85.4332 24.4496 84.6724 24.7632C83.9104 25.0544 83.0932 25.2 82.2196 25.2C80.674 25.2 79.2844 24.808 78.0532 24.024C76.8208 23.2176 75.8464 22.1312 75.13 20.7648C74.4124 19.376 74.0548 17.7856 74.0548 15.9936C74.0548 14.2016 74.4124 12.6224 75.13 11.256C75.8464 9.86724 76.81 8.78076 78.0196 7.9968C79.2508 7.1904 80.6176 6.7872 82.1188 6.7872C83.0596 6.7872 83.9332 6.94404 84.7396 7.2576C85.5676 7.57116 86.2852 7.97436 86.89 8.4672C87.4948 8.96004 87.9652 9.48636 88.3012 10.0464C88.6372 10.584 88.8052 11.0992 88.8052 11.592L87.7636 11.6928V1.7136C87.7636 1.22076 87.9196 0.81756 88.234 0.504C88.57 0.168 88.9732 0 89.4436 0ZM82.5892 22.1088C83.6644 22.1088 84.5932 21.84 85.378 21.3024C86.1844 20.7648 86.8108 20.0368 87.2596 19.1184C87.7072 18.2 87.9316 17.1584 87.9316 15.9936C87.9316 14.8288 87.7072 13.7872 87.2596 12.8688C86.8108 11.9504 86.1844 11.2224 85.378 10.6848C84.5716 10.1472 83.6416 9.8784 82.5892 9.8784C81.5584 9.8784 80.6404 10.1472 79.834 10.6848C79.0492 11.2224 78.4228 11.9504 77.9524 12.8688C77.5036 13.7872 77.2804 14.8288 77.2804 15.9936C77.2804 17.1584 77.5036 18.2 77.9524 19.1184C78.4228 20.0368 79.0492 20.7648 79.834 21.3024C80.6404 21.84 81.5584 22.1088 82.5892 22.1088ZM98.9884 23.1504C98.9884 23.6432 98.8324 24.0576 98.518 24.3936C98.2048 24.7072 97.8016 24.864 97.3084 24.864C96.838 24.864 96.4348 24.7072 96.0988 24.3936C95.7856 24.0576 95.6284 23.6432 95.6284 23.1504V8.7696C95.6284 8.27676 95.7856 7.87356 96.0988 7.56C96.4348 7.224 96.838 7.056 97.3084 7.056C97.8016 7.056 98.2048 7.224 98.518 7.56C98.8324 7.87356 98.9884 8.27676 98.9884 8.7696V23.1504ZM97.2748 4.8384C96.6256 4.8384 96.1552 4.72644 95.8636 4.5024C95.5732 4.25604 95.4268 3.85284 95.4268 3.2928V2.7552C95.4268 2.19516 95.584 1.80324 95.8972 1.5792C96.2116 1.35516 96.682 1.2432 97.3084 1.2432C97.9804 1.2432 98.4628 1.36644 98.7532 1.6128C99.0448 1.83684 99.19 2.2176 99.19 2.7552V3.2928C99.19 3.87516 99.034 4.27836 98.7196 4.5024C98.4292 4.72644 97.9468 4.8384 97.2748 4.8384ZM116.68 7.1904C117.15 7.1904 117.542 7.3584 117.856 7.6944C118.192 8.00796 118.36 8.41116 118.36 8.904V17.7408C118.36 20.0704 117.71 21.896 116.411 23.2176C115.112 24.5168 113.274 25.1664 110.901 25.1664C108.549 25.1664 106.722 24.5168 105.424 23.2176C104.147 21.896 103.509 20.0704 103.509 17.7408V8.904C103.509 8.41116 103.665 8.00796 103.979 7.6944C104.292 7.3584 104.696 7.1904 105.189 7.1904C105.659 7.1904 106.05 7.3584 106.365 7.6944C106.701 8.00796 106.869 8.41116 106.869 8.904V17.7408C106.869 19.1968 107.205 20.2832 107.877 21C108.57 21.7168 109.578 22.0752 110.901 22.0752C112.245 22.0752 113.264 21.7168 113.958 21C114.652 20.2832 115 19.1968 115 17.7408V8.904C115 8.41116 115.156 8.00796 115.47 7.6944C115.784 7.3584 116.187 7.1904 116.68 7.1904ZM121.99 22.1088C121.788 21.7952 121.7 21.4368 121.721 21.0336C121.744 20.608 121.979 20.2496 122.427 19.9584C122.741 19.7568 123.065 19.6784 123.401 19.7232C123.76 19.7456 124.096 19.9136 124.409 20.2272C125.037 20.9216 125.732 21.4704 126.492 21.8736C127.277 22.2768 128.218 22.4784 129.315 22.4784C129.764 22.456 130.222 22.3888 130.692 22.2768C131.163 22.1424 131.566 21.9184 131.902 21.6048C132.238 21.2688 132.406 20.7872 132.406 20.16C132.406 19.6 132.227 19.152 131.868 18.816C131.511 18.48 131.04 18.2112 130.457 18.0096C129.875 17.7856 129.248 17.584 128.576 17.4048C127.859 17.2032 127.131 16.9792 126.392 16.7328C125.675 16.4864 125.026 16.1728 124.443 15.792C123.861 15.3888 123.38 14.8736 122.998 14.2464C122.64 13.6192 122.46 12.8464 122.46 11.928C122.46 10.8752 122.752 9.96804 123.334 9.2064C123.939 8.44476 124.712 7.85124 125.652 7.4256C126.616 6.99996 127.658 6.7872 128.777 6.7872C129.428 6.7872 130.11 6.87684 130.827 7.056C131.544 7.21284 132.238 7.47036 132.91 7.8288C133.582 8.18724 134.165 8.65764 134.657 9.24C134.882 9.53124 135.005 9.8784 135.027 10.2816C135.072 10.6848 134.892 11.0432 134.489 11.3568C134.22 11.5808 133.896 11.6816 133.515 11.6592C133.134 11.6368 132.821 11.5136 132.574 11.2896C132.149 10.752 131.6 10.3376 130.928 10.0464C130.256 9.73284 129.495 9.576 128.643 9.576C128.218 9.576 127.769 9.6432 127.299 9.7776C126.851 9.88956 126.471 10.1024 126.156 10.416C125.843 10.7296 125.686 11.1888 125.686 11.7936C125.686 12.3536 125.866 12.8016 126.224 13.1376C126.605 13.4736 127.097 13.7536 127.702 13.9776C128.307 14.2016 128.968 14.4032 129.684 14.5824C130.379 14.7616 131.062 14.9744 131.734 15.2208C132.429 15.4672 133.044 15.792 133.582 16.1952C134.142 16.576 134.59 17.08 134.926 17.7072C135.285 18.312 135.464 19.0848 135.464 20.0256C135.464 21.1232 135.14 22.064 134.489 22.848C133.863 23.6096 133.056 24.192 132.07 24.5952C131.108 24.9984 130.088 25.2 129.012 25.2C127.736 25.2 126.459 24.976 125.182 24.528C123.928 24.0576 122.864 23.2512 121.99 22.1088Z" fill="#633C3C"/>
</g>
<path d="M150.119 21.8641V11.5825H156.225V12.7201H151.415V15.9313H152.942C153.969 15.9313 154.766 16.0609 155.332 16.3201C155.898 16.5697 156.292 16.9153 156.513 17.3569C156.734 17.7889 156.844 18.2881 156.844 18.8545C156.844 19.4785 156.719 20.0161 156.47 20.4673C156.23 20.9185 155.836 21.2641 155.289 21.5041C154.742 21.7441 154.022 21.8641 153.129 21.8641H150.119ZM152.999 20.7553C153.921 20.7553 154.569 20.6017 154.943 20.2945C155.318 19.9777 155.505 19.4977 155.505 18.8545C155.505 18.4129 155.414 18.0625 155.231 17.8033C155.058 17.5345 154.77 17.3425 154.367 17.2273C153.974 17.1121 153.446 17.0545 152.783 17.0545H151.415V20.7553H152.999ZM165.516 17.9905C165.516 18.6337 165.43 19.2049 165.257 19.7041C165.094 20.1937 164.854 20.6113 164.537 20.9569C164.23 21.3025 163.851 21.5665 163.4 21.7489C162.958 21.9217 162.464 22.0081 161.916 22.0081C161.408 22.0081 160.937 21.9217 160.505 21.7489C160.073 21.5665 159.699 21.3025 159.382 20.9569C159.065 20.6113 158.816 20.1937 158.633 19.7041C158.46 19.2049 158.374 18.6337 158.374 17.9905C158.374 17.1361 158.518 16.4161 158.806 15.8305C159.094 15.2353 159.507 14.7841 160.044 14.4769C160.582 14.1601 161.22 14.0017 161.96 14.0017C162.66 14.0017 163.275 14.1601 163.803 14.4769C164.34 14.7841 164.758 15.2353 165.056 15.8305C165.363 16.4161 165.516 17.1361 165.516 17.9905ZM159.684 17.9905C159.684 18.5953 159.761 19.1233 159.915 19.5745C160.078 20.0161 160.328 20.3569 160.664 20.5969C161 20.8369 161.427 20.9569 161.945 20.9569C162.464 20.9569 162.891 20.8369 163.227 20.5969C163.563 20.3569 163.808 20.0161 163.961 19.5745C164.124 19.1233 164.206 18.5953 164.206 17.9905C164.206 17.3761 164.124 16.8529 163.961 16.4209C163.798 15.9889 163.548 15.6577 163.212 15.4273C162.886 15.1873 162.459 15.0673 161.931 15.0673C161.144 15.0673 160.572 15.3265 160.217 15.8449C159.862 16.3633 159.684 17.0785 159.684 17.9905ZM168.792 14.1457V17.3569H172.983V14.1457H174.25V21.8641H172.983V18.4225H168.792V21.8641H167.525V14.1457H168.792ZM175.484 14.1457H176.837L178.508 18.5377C178.604 18.7969 178.69 19.0465 178.767 19.2865C178.853 19.5265 178.93 19.7617 178.997 19.9921C179.064 20.2129 179.117 20.4289 179.156 20.6401H179.213C179.271 20.4001 179.362 20.0881 179.487 19.7041C179.612 19.3105 179.741 18.9169 179.876 18.5233L181.445 14.1457H182.813L179.487 22.9297C179.304 23.4097 179.088 23.8273 178.839 24.1825C178.599 24.5473 178.301 24.8257 177.946 25.0177C177.6 25.2193 177.178 25.3201 176.679 25.3201C176.448 25.3201 176.247 25.3057 176.074 25.2769C175.901 25.2577 175.752 25.2337 175.628 25.2049V24.1969C175.733 24.2161 175.858 24.2353 176.002 24.2545C176.156 24.2737 176.314 24.2833 176.477 24.2833C176.775 24.2833 177.029 24.2257 177.24 24.1105C177.461 24.0049 177.648 23.8465 177.802 23.6353C177.956 23.4337 178.085 23.1937 178.191 22.9153L178.594 21.8929L175.484 14.1457ZM187.131 22.0081C186.449 22.0081 185.84 21.8689 185.302 21.5905C184.774 21.3121 184.356 20.8801 184.049 20.2945C183.752 19.7089 183.603 18.9601 183.603 18.0481C183.603 17.0977 183.761 16.3249 184.078 15.7297C184.395 15.1345 184.822 14.6977 185.36 14.4193C185.907 14.1409 186.526 14.0017 187.217 14.0017C187.611 14.0017 187.99 14.0449 188.355 14.1313C188.72 14.2081 189.017 14.3041 189.248 14.4193L188.859 15.4705C188.628 15.3841 188.36 15.3025 188.052 15.2257C187.745 15.1489 187.457 15.1105 187.188 15.1105C186.67 15.1105 186.243 15.2209 185.907 15.4417C185.571 15.6625 185.321 15.9889 185.158 16.4209C184.995 16.8529 184.913 17.3905 184.913 18.0337C184.913 18.6481 184.995 19.1713 185.158 19.6033C185.321 20.0353 185.566 20.3617 185.892 20.5825C186.219 20.8033 186.627 20.9137 187.116 20.9137C187.539 20.9137 187.908 20.8705 188.225 20.7841C188.552 20.6977 188.849 20.5921 189.118 20.4673V21.5905C188.859 21.7249 188.571 21.8257 188.254 21.8929C187.947 21.9697 187.572 22.0081 187.131 22.0081ZM192.22 14.1457V17.3569H196.41V14.1457H197.678V21.8641H196.41V18.4225H192.22V21.8641H190.953V14.1457H192.22ZM203.045 14.0161C203.986 14.0161 204.682 14.2225 205.133 14.6353C205.584 15.0481 205.81 15.7057 205.81 16.6081V21.8641H204.888L204.644 20.7697H204.586C204.365 21.0481 204.135 21.2833 203.895 21.4753C203.664 21.6577 203.396 21.7921 203.088 21.8785C202.791 21.9649 202.426 22.0081 201.994 22.0081C201.533 22.0081 201.116 21.9265 200.741 21.7633C200.376 21.6001 200.088 21.3505 199.877 21.0145C199.666 20.6689 199.56 20.2369 199.56 19.7185C199.56 18.9505 199.863 18.3601 200.468 17.9473C201.072 17.5249 202.004 17.2945 203.261 17.2561L204.572 17.2129V16.7521C204.572 16.1089 204.432 15.6625 204.154 15.4129C203.876 15.1633 203.482 15.0385 202.973 15.0385C202.57 15.0385 202.186 15.1009 201.821 15.2257C201.456 15.3409 201.116 15.4753 200.799 15.6289L200.41 14.6785C200.746 14.4961 201.144 14.3425 201.605 14.2177C202.066 14.0833 202.546 14.0161 203.045 14.0161ZM203.42 18.1345C202.46 18.1729 201.792 18.3265 201.418 18.5953C201.053 18.8641 200.871 19.2433 200.871 19.7329C200.871 20.1649 201 20.4817 201.26 20.6833C201.528 20.8849 201.869 20.9857 202.282 20.9857C202.935 20.9857 203.477 20.8081 203.909 20.4529C204.341 20.0881 204.557 19.5313 204.557 18.7825V18.0913L203.42 18.1345ZM208.668 21.8641H207.2L209.403 18.6241C209.105 18.5473 208.817 18.4273 208.539 18.2641C208.26 18.0913 208.035 17.8561 207.862 17.5585C207.689 17.2513 207.603 16.8721 207.603 16.4209C207.603 15.6817 207.852 15.1201 208.352 14.7361C208.851 14.3425 209.513 14.1457 210.339 14.1457H213.795V21.8641H212.528V18.7969H210.656L208.668 21.8641ZM208.827 16.4353C208.827 16.8769 208.99 17.2081 209.316 17.4289C209.652 17.6401 210.118 17.7457 210.713 17.7457H212.528V15.1969H210.468C209.883 15.1969 209.46 15.3121 209.201 15.5425C208.952 15.7729 208.827 16.0705 208.827 16.4353ZM223.271 22.0081C222.59 22.0081 221.98 21.8689 221.442 21.5905C220.914 21.3121 220.497 20.8801 220.19 20.2945C219.892 19.7089 219.743 18.9601 219.743 18.0481C219.743 17.0977 219.902 16.3249 220.218 15.7297C220.535 15.1345 220.962 14.6977 221.5 14.4193C222.047 14.1409 222.666 14.0017 223.358 14.0017C223.751 14.0017 224.13 14.0449 224.495 14.1313C224.86 14.2081 225.158 14.3041 225.388 14.4193L224.999 15.4705C224.769 15.3841 224.5 15.3025 224.193 15.2257C223.886 15.1489 223.598 15.1105 223.329 15.1105C222.81 15.1105 222.383 15.2209 222.047 15.4417C221.711 15.6625 221.462 15.9889 221.298 16.4209C221.135 16.8529 221.054 17.3905 221.054 18.0337C221.054 18.6481 221.135 19.1713 221.298 19.6033C221.462 20.0353 221.706 20.3617 222.033 20.5825C222.359 20.8033 222.767 20.9137 223.257 20.9137C223.679 20.9137 224.049 20.8705 224.366 20.7841C224.692 20.6977 224.99 20.5921 225.258 20.4673V21.5905C224.999 21.7249 224.711 21.8257 224.394 21.8929C224.087 21.9697 223.713 22.0081 223.271 22.0081ZM228.288 18.8545C228.288 18.9409 228.284 19.0657 228.274 19.2289C228.274 19.3825 228.269 19.5505 228.26 19.7329C228.25 19.9057 228.24 20.0737 228.231 20.2369C228.221 20.3905 228.212 20.5153 228.202 20.6113L232.335 14.1457H233.89V21.8641H232.709V17.3137C232.709 17.1601 232.709 16.9585 232.709 16.7089C232.719 16.4593 232.728 16.2145 232.738 15.9745C232.748 15.7249 232.757 15.5377 232.767 15.4129L228.663 21.8641H227.093V14.1457H228.288V18.8545ZM239.442 22.0081C238.761 22.0081 238.151 21.8689 237.614 21.5905C237.086 21.3121 236.668 20.8801 236.361 20.2945C236.063 19.7089 235.914 18.9601 235.914 18.0481C235.914 17.0977 236.073 16.3249 236.39 15.7297C236.706 15.1345 237.134 14.6977 237.671 14.4193C238.218 14.1409 238.838 14.0017 239.529 14.0017C239.922 14.0017 240.302 14.0449 240.666 14.1313C241.031 14.2081 241.329 14.3041 241.559 14.4193L241.17 15.4705C240.94 15.3841 240.671 15.3025 240.364 15.2257C240.057 15.1489 239.769 15.1105 239.5 15.1105C238.982 15.1105 238.554 15.2209 238.218 15.4417C237.882 15.6625 237.633 15.9889 237.47 16.4209C237.306 16.8529 237.225 17.3905 237.225 18.0337C237.225 18.6481 237.306 19.1713 237.47 19.6033C237.633 20.0353 237.878 20.3617 238.204 20.5825C238.53 20.8033 238.938 20.9137 239.428 20.9137C239.85 20.9137 240.22 20.8705 240.537 20.7841C240.863 20.6977 241.161 20.5921 241.43 20.4673V21.5905C241.17 21.7249 240.882 21.8257 240.566 21.8929C240.258 21.9697 239.884 22.0081 239.442 22.0081ZM248.594 15.2113H246.074V21.8641H244.821V15.2113H242.33V14.1457H248.594V15.2113ZM252.954 14.0017C253.617 14.0017 254.183 14.1457 254.654 14.4337C255.134 14.7217 255.498 15.1297 255.748 15.6577C256.007 16.1761 256.137 16.7857 256.137 17.4865V18.2497H250.852C250.871 19.1233 251.092 19.7905 251.514 20.2513C251.946 20.7025 252.546 20.9281 253.314 20.9281C253.804 20.9281 254.236 20.8849 254.61 20.7985C254.994 20.7025 255.388 20.5681 255.791 20.3953V21.5041C255.398 21.6769 255.009 21.8017 254.625 21.8785C254.241 21.9649 253.785 22.0081 253.257 22.0081C252.527 22.0081 251.879 21.8593 251.313 21.5617C250.756 21.2641 250.319 20.8225 250.002 20.2369C249.695 19.6417 249.542 18.9169 249.542 18.0625C249.542 17.2177 249.681 16.4929 249.959 15.8881C250.247 15.2833 250.646 14.8177 251.154 14.4913C251.673 14.1649 252.273 14.0017 252.954 14.0017ZM252.94 15.0385C252.335 15.0385 251.855 15.2353 251.5 15.6289C251.154 16.0129 250.948 16.5505 250.881 17.2417H254.812C254.812 16.8001 254.745 16.4161 254.61 16.0897C254.476 15.7633 254.27 15.5089 253.991 15.3265C253.722 15.1345 253.372 15.0385 252.94 15.0385ZM266.381 14.1457V21.8641H265.244V16.9393C265.244 16.7377 265.248 16.5265 265.258 16.3057C265.277 16.0849 265.296 15.8689 265.316 15.6577H265.272L262.752 21.8641H261.687L259.239 15.6577H259.196C259.215 15.8689 259.224 16.0849 259.224 16.3057C259.234 16.5265 259.239 16.7521 259.239 16.9825V21.8641H258.101V14.1457H259.786L262.22 20.3521L264.696 14.1457H266.381ZM271.768 14.0161C272.709 14.0161 273.405 14.2225 273.856 14.6353C274.307 15.0481 274.533 15.7057 274.533 16.6081V21.8641H273.611L273.366 20.7697H273.309C273.088 21.0481 272.858 21.2833 272.618 21.4753C272.387 21.6577 272.118 21.7921 271.811 21.8785C271.514 21.9649 271.149 22.0081 270.717 22.0081C270.256 22.0081 269.838 21.9265 269.464 21.7633C269.099 21.6001 268.811 21.3505 268.6 21.0145C268.389 20.6689 268.283 20.2369 268.283 19.7185C268.283 18.9505 268.586 18.3601 269.19 17.9473C269.795 17.5249 270.726 17.2945 271.984 17.2561L273.294 17.2129V16.7521C273.294 16.1089 273.155 15.6625 272.877 15.4129C272.598 15.1633 272.205 15.0385 271.696 15.0385C271.293 15.0385 270.909 15.1009 270.544 15.2257C270.179 15.3409 269.838 15.4753 269.522 15.6289L269.133 14.6785C269.469 14.4961 269.867 14.3425 270.328 14.2177C270.789 14.0833 271.269 14.0161 271.768 14.0161ZM272.142 18.1345C271.182 18.1729 270.515 18.3265 270.141 18.5953C269.776 18.8641 269.594 19.2433 269.594 19.7329C269.594 20.1649 269.723 20.4817 269.982 20.6833C270.251 20.8849 270.592 20.9857 271.005 20.9857C271.658 20.9857 272.2 20.8081 272.632 20.4529C273.064 20.0881 273.28 19.5313 273.28 18.7825V18.0913L272.142 18.1345ZM287.378 14.1457V21.8641H286.11V15.2257H282.122V21.8641H280.854V14.1457H287.378ZM296.55 17.9905C296.55 18.6337 296.464 19.2049 296.291 19.7041C296.128 20.1937 295.888 20.6113 295.571 20.9569C295.264 21.3025 294.885 21.5665 294.434 21.7489C293.992 21.9217 293.498 22.0081 292.95 22.0081C292.442 22.0081 291.971 21.9217 291.539 21.7489C291.107 21.5665 290.733 21.3025 290.416 20.9569C290.099 20.6113 289.85 20.1937 289.667 19.7041C289.494 19.2049 289.408 18.6337 289.408 17.9905C289.408 17.1361 289.552 16.4161 289.84 15.8305C290.128 15.2353 290.541 14.7841 291.078 14.4769C291.616 14.1601 292.254 14.0017 292.994 14.0017C293.694 14.0017 294.309 14.1601 294.837 14.4769C295.374 14.7841 295.792 15.2353 296.09 15.8305C296.397 16.4161 296.55 17.1361 296.55 17.9905ZM290.718 17.9905C290.718 18.5953 290.795 19.1233 290.949 19.5745C291.112 20.0161 291.362 20.3569 291.698 20.5969C292.034 20.8369 292.461 20.9569 292.979 20.9569C293.498 20.9569 293.925 20.8369 294.261 20.5969C294.597 20.3569 294.842 20.0161 294.995 19.5745C295.158 19.1233 295.24 18.5953 295.24 17.9905C295.24 17.3761 295.158 16.8529 294.995 16.4209C294.832 15.9889 294.582 15.6577 294.246 15.4273C293.92 15.1873 293.493 15.0673 292.965 15.0673C292.178 15.0673 291.606 15.3265 291.251 15.8449C290.896 16.3633 290.718 17.0785 290.718 17.9905ZM305.27 17.9905C305.27 18.6337 305.183 19.2049 305.01 19.7041C304.847 20.1937 304.607 20.6113 304.29 20.9569C303.983 21.3025 303.604 21.5665 303.153 21.7489C302.711 21.9217 302.217 22.0081 301.67 22.0081C301.161 22.0081 300.69 21.9217 300.258 21.7489C299.826 21.5665 299.452 21.3025 299.135 20.9569C298.818 20.6113 298.569 20.1937 298.386 19.7041C298.214 19.2049 298.127 18.6337 298.127 17.9905C298.127 17.1361 298.271 16.4161 298.559 15.8305C298.847 15.2353 299.26 14.7841 299.798 14.4769C300.335 14.1601 300.974 14.0017 301.713 14.0017C302.414 14.0017 303.028 14.1601 303.556 14.4769C304.094 14.7841 304.511 15.2353 304.809 15.8305C305.116 16.4161 305.27 17.1361 305.27 17.9905ZM299.438 17.9905C299.438 18.5953 299.514 19.1233 299.668 19.5745C299.831 20.0161 300.081 20.3569 300.417 20.5969C300.753 20.8369 301.18 20.9569 301.698 20.9569C302.217 20.9569 302.644 20.8369 302.98 20.5969C303.316 20.3569 303.561 20.0161 303.714 19.5745C303.878 19.1233 303.959 18.5953 303.959 17.9905C303.959 17.3761 303.878 16.8529 303.714 16.4209C303.551 15.9889 303.302 15.6577 302.966 15.4273C302.639 15.1873 302.212 15.0673 301.684 15.0673C300.897 15.0673 300.326 15.3265 299.97 15.8449C299.615 16.3633 299.438 17.0785 299.438 17.9905ZM317.733 14.1457V20.8129H318.856V24.5281H317.589V21.8641H307.278V14.1457H308.546V20.7985H311.872V14.1457H313.139V20.7985H316.48V14.1457H317.733ZM324 14.0017C324.951 14.0017 325.714 14.3329 326.29 14.9953C326.876 15.6577 327.168 16.6561 327.168 17.9905C327.168 18.8641 327.034 19.6033 326.765 20.2081C326.506 20.8033 326.136 21.2545 325.656 21.5617C325.186 21.8593 324.629 22.0081 323.986 22.0081C323.592 22.0081 323.242 21.9553 322.935 21.8497C322.628 21.7441 322.364 21.6097 322.143 21.4465C321.932 21.2737 321.749 21.0865 321.596 20.8849H321.509C321.528 21.0481 321.548 21.2545 321.567 21.5041C321.586 21.7537 321.596 21.9697 321.596 22.1521V25.3201H320.328V14.1457H321.365L321.538 15.1969H321.596C321.749 14.9761 321.932 14.7745 322.143 14.5921C322.364 14.4097 322.623 14.2657 322.92 14.1601C323.228 14.0545 323.588 14.0017 324 14.0017ZM323.77 15.0673C323.252 15.0673 322.834 15.1681 322.517 15.3697C322.2 15.5617 321.97 15.8545 321.826 16.2481C321.682 16.6417 321.605 17.1409 321.596 17.7457V17.9905C321.596 18.6241 321.663 19.1617 321.797 19.6033C321.932 20.0449 322.157 20.3809 322.474 20.6113C322.8 20.8417 323.242 20.9569 323.799 20.9569C324.269 20.9569 324.653 20.8273 324.951 20.5681C325.258 20.3089 325.484 19.9585 325.628 19.5169C325.781 19.0657 325.858 18.5521 325.858 17.9761C325.858 17.0929 325.685 16.3873 325.34 15.8593C325.004 15.3313 324.48 15.0673 323.77 15.0673ZM332.169 14.0017C332.831 14.0017 333.398 14.1457 333.868 14.4337C334.348 14.7217 334.713 15.1297 334.962 15.6577C335.222 16.1761 335.351 16.7857 335.351 17.4865V18.2497H330.066C330.086 19.1233 330.306 19.7905 330.729 20.2513C331.161 20.7025 331.761 20.9281 332.529 20.9281C333.018 20.9281 333.45 20.8849 333.825 20.7985C334.209 20.7025 334.602 20.5681 335.006 20.3953V21.5041C334.612 21.6769 334.223 21.8017 333.839 21.8785C333.455 21.9649 332.999 22.0081 332.471 22.0081C331.742 22.0081 331.094 21.8593 330.527 21.5617C329.97 21.2641 329.534 20.8225 329.217 20.2369C328.91 19.6417 328.756 18.9169 328.756 18.0625C328.756 17.2177 328.895 16.4929 329.174 15.8881C329.462 15.2833 329.86 14.8177 330.369 14.4913C330.887 14.1649 331.487 14.0017 332.169 14.0017ZM332.154 15.0385C331.55 15.0385 331.07 15.2353 330.714 15.6289C330.369 16.0129 330.162 16.5505 330.095 17.2417H334.026C334.026 16.8001 333.959 16.4161 333.825 16.0897C333.69 15.7633 333.484 15.5089 333.206 15.3265C332.937 15.1345 332.586 15.0385 332.154 15.0385ZM338.583 14.1457V17.3569H342.773V14.1457H344.04V21.8641H342.773V18.4225H338.583V21.8641H337.316V14.1457H338.583ZM347.68 18.8545C347.68 18.9409 347.675 19.0657 347.666 19.2289C347.666 19.3825 347.661 19.5505 347.651 19.7329C347.642 19.9057 347.632 20.0737 347.622 20.2369C347.613 20.3905 347.603 20.5153 347.594 20.6113L351.726 14.1457H353.282V21.8641H352.101V17.3137C352.101 17.1601 352.101 16.9585 352.101 16.7089C352.11 16.4593 352.12 16.2145 352.13 15.9745C352.139 15.7249 352.149 15.5377 352.158 15.4129L348.054 21.8641H346.485V14.1457H347.68V18.8545ZM356.213 21.8641H354.744L356.948 18.6241C356.65 18.5473 356.362 18.4273 356.084 18.2641C355.805 18.0913 355.58 17.8561 355.407 17.5585C355.234 17.2513 355.148 16.8721 355.148 16.4209C355.148 15.6817 355.397 15.1201 355.896 14.7361C356.396 14.3425 357.058 14.1457 357.884 14.1457H361.34V21.8641H360.072V18.7969H358.2L356.213 21.8641ZM356.372 16.4353C356.372 16.8769 356.535 17.2081 356.861 17.4289C357.197 17.6401 357.663 17.7457 358.258 17.7457H360.072V15.1969H358.013C357.428 15.1969 357.005 15.3121 356.746 15.5425C356.496 15.7729 356.372 16.0705 356.372 16.4353Z" fill="#633C3C"/>
<defs>
<filter id="filter0_d_71_169" x="0" y="0" width="139.464" height="33.2002" filterUnits="userSpaceOnUse" color-interpolation-filters="sRGB">
<feFlood flood-opacity="0" result="BackgroundImageFix"/>
<feColorMatrix in="SourceAlpha" type="matrix" values="0 0 0 0 0 0 0 0 0 0 0 0 0 0 0 0 0 0 127 0" result="hardAlpha"/>
<feOffset dy="4"/>
<feGaussianBlur stdDeviation="2"/>
<feComposite in2="hardAlpha" operator="out"/>
<feColorMatrix type="matrix" values="0 0 0 0 0 0 0 0 0 0 0 0 0 0 0 0 0 0 0.25 0"/>
<feBlend mode="normal" in2="BackgroundImageFix" result="effect1_dropShadow_71_169"/>
<feBlend mode="normal" in="SourceGraphic" in2="effect1_dropShadow_71_169" result="shape"/>
</filter>
</defs>
</svg>
