<svg width="20" height="20" viewBox="0 0 20 20" fill="none" xmlns="http://www.w3.org/2000/svg">
<path d="M1 8.73498C1 8.15599 1.25091 7.60541 1.68789 7.22556L8.68789 1.14059C9.44035 0.486493 10.5596 0.486493 11.3121 1.1406L18.3121 7.22556C18.7491 7.60541 19 8.15599 19 8.73499V17C19 18.1046 18.1046 19 17 19H14.25C13.1454 19 12.25 18.1046 12.25 17V14.2941C12.25 13.1895 11.3546 12.2941 10.25 12.2941H9.75C8.64543 12.2941 7.75 13.1895 7.75 14.2941V17C7.75 18.1046 6.85457 19 5.75 19H3C1.89543 19 1 18.1046 1 17V8.73498Z" stroke="#09090B" stroke-linejoin="round"/>
</svg>
