<svg width="20" height="20" viewBox="0 0 20 20" fill="none" xmlns="http://www.w3.org/2000/svg">
<path d="M1 8.83752C1 8.25853 1.25091 7.70795 1.68789 7.3281L8.68789 1.24313C9.44035 0.589032 10.5596 0.589032 11.3121 1.24313L18.3121 7.3281C18.7491 7.70795 19 8.25853 19 8.83752V17.1025C19 18.2071 18.1046 19.1025 17 19.1025H14.25C13.1454 19.1025 12.25 18.2071 12.25 17.1025V14.3967C12.25 13.2921 11.3546 12.3967 10.25 12.3967H9.75C8.64543 12.3967 7.75 13.2921 7.75 14.3967V17.1025C7.75 18.2071 6.85457 19.1025 5.75 19.1025H3C1.89543 19.1025 1 18.2071 1 17.1025V8.83752Z" stroke="#09090B" stroke-linejoin="round"/>
</svg>
