<svg width="43" height="43" viewBox="0 0 43 43" fill="none" xmlns="http://www.w3.org/2000/svg">
<path d="M2.47186 0.500025C1.32284 0.494249 0.414847 1.47252 0.506359 2.61764L3.52545 40.6839C3.60847 41.7067 4.46087 42.4958 5.48732 42.5H37.513C38.538 42.4939 39.3883 41.7053 39.4712 40.6839L42.4939 2.61764C42.5827 1.47766 41.683 0.502915 40.5393 0.500025H2.47186Z" fill="black"/>
<path d="M40.5394 1.01221C41.3881 1.00966 42.0584 1.73174 41.9926 2.57772L38.9735 40.6439C38.9128 41.4007 38.2796 41.9831 37.5203 41.9806H5.49461C4.73531 41.9831 4.10212 41.4007 4.04138 40.6439L1.02228 2.57772C0.956502 1.73174 1.62679 1.00966 2.47552 1.01221H40.5394Z" fill="white"/>
<path fill-rule="evenodd" clip-rule="evenodd" d="M4.28968 29.9897L4.30228 30.0512H11.2671V2.11206L7.01249 2.1129C2.95133 2.11374 2.75113 2.11605 2.61207 2.16415C2.33236 2.26076 2.14403 2.5237 2.14246 2.82015C2.14173 2.96118 4.27024 29.8944 4.28968 29.9897ZM31.7549 30.0512H38.7134L38.7282 29.9351C38.8158 29.2467 40.8823 2.73656 40.8558 2.64184C40.7878 2.39969 40.5716 2.19313 40.3324 2.14188C40.2352 2.12099 38.9209 2.11206 35.9742 2.11206H31.7549V30.0512Z" fill="#F40027"/>
<path fill-rule="evenodd" clip-rule="evenodd" d="M22.466 18.3038C22.0475 18.405 21.0743 18.476 20.8686 18.4204C20.6545 18.3625 20.4126 18.1569 20.5071 18.1131C20.6519 18.046 21.9203 18.0302 22.5186 18.088C22.921 18.1269 22.9036 18.198 22.466 18.3038ZM17.853 17.5886C17.9387 18.743 18.3197 19.9872 18.5874 19.9872C18.6422 19.9872 18.6675 19.9523 18.7536 19.7584C18.9476 19.3214 19.0309 19.2894 19.1175 19.6185C19.2124 19.9793 19.4113 20.6261 19.4901 20.8309C19.6141 21.1528 19.5678 21.2303 19.2517 21.2291C18.1132 21.2251 16.4728 18.6023 16.9732 17.586C17.1563 17.2141 17.5845 17.0056 17.7667 17.1994C17.8207 17.2569 17.8322 17.3091 17.853 17.5886ZM24.1881 17.2181C24.9554 17.4611 23.5671 17.8126 22.532 17.6373C22.3836 17.6122 22.1085 17.5428 21.9207 17.4829C21.5223 17.3558 21.3856 17.3544 21.0869 17.4738C20.4151 17.7425 19.2293 17.7711 18.754 17.5301C18.4657 17.384 18.4717 17.3051 18.7808 17.1748C18.8927 17.1276 19.1472 16.9814 19.3463 16.85C19.9494 16.4519 20.2259 16.3864 20.5003 16.5764C21.1212 17.0064 21.84 17.0461 22.2069 16.6707C22.2988 16.5766 22.3915 16.5135 22.4937 16.4755C22.5768 16.4446 22.7 16.3865 22.7676 16.3461C22.9851 16.2164 23.0519 16.2079 23.1782 16.2933C23.2282 16.3271 23.3691 16.4777 23.4913 16.6279C23.7235 16.9132 24.021 17.1652 24.1881 17.2181ZM20.0965 15.0417C20.0373 15.1717 20.027 15.3885 20.0738 15.5218C20.1875 15.8451 20.0389 15.984 19.807 15.7713C19.4514 15.4451 19.7009 14.6223 20.066 14.9178C20.1223 14.9633 20.1258 14.9773 20.0965 15.0417ZM19.7817 13.1948C20.0768 13.1522 20.1132 13.1793 19.9718 13.3358C19.8527 13.4676 19.8529 13.4654 19.9433 13.6381C20.1493 14.0321 19.6818 14.4028 18.8921 14.4717C18.647 14.493 18.6154 14.5161 18.6154 14.6733C18.6154 14.8329 18.69 14.8698 19.0061 14.8662C19.365 14.8621 19.353 14.8611 19.353 14.898C19.353 14.9156 19.3167 14.9863 19.2724 15.0553C19.2281 15.1244 19.1727 15.2541 19.1494 15.3436C19.0954 15.5507 19.0824 15.5625 18.7698 15.6854C18.6266 15.7417 18.4318 15.843 18.337 15.9104C17.54 16.4775 17.1559 16.3074 16.7987 15.229C16.5504 14.4792 16.6059 14.3612 17.0965 14.5965C17.4254 14.7543 17.556 14.766 17.6302 14.6443C17.7462 14.4541 17.7164 14.3884 17.459 14.2661C17.0077 14.0517 16.7103 13.5774 16.9349 13.4303C17.0092 13.3816 17.0653 13.3997 17.2046 13.5174C17.4628 13.7357 17.567 13.7397 17.7511 13.5384C18.1086 13.1476 18.3751 13.068 18.974 13.1728C19.3355 13.236 19.4715 13.2397 19.7817 13.1948ZM15.5207 13.0979C15.4289 13.348 15.4346 13.4175 15.6373 14.5249C15.801 15.4195 15.7623 15.65 15.4888 15.4101C15.3684 15.3043 15.3222 15.2195 15.2714 15.011C15.2502 14.924 15.1388 14.5147 15.0239 14.1016C14.7889 13.2572 14.7558 13.0347 14.8285 12.7849C14.9074 12.5137 15.1359 12.4093 15.3563 12.5437C15.531 12.6502 15.5998 12.8823 15.5207 13.0979ZM27.5637 13.5957C27.7091 13.4504 27.7285 13.3811 27.693 13.1334C27.6357 12.7336 27.8186 12.3946 28.0576 12.4578C28.4515 12.5619 28.4547 12.8799 28.0757 14.2381C27.9939 14.531 27.8853 14.9441 27.8343 15.1562C27.5405 16.3765 27.3362 16.7009 26.9602 16.5439C26.7952 16.475 26.7514 16.5036 26.5711 16.7983C26.3674 17.1315 26.3546 17.1757 26.3356 17.611C26.2436 19.7168 25.2114 21.4609 23.7098 22.0478C23.3199 22.2002 23.2179 22.1984 23.0436 22.0354C22.9243 21.9239 22.8275 21.8797 22.8189 21.9329C22.8171 21.9443 22.8134 22.0893 22.8108 22.2553C22.8051 22.6126 22.7806 22.673 22.4949 23.0322C22.2311 23.3638 22.1629 23.5156 22.0988 23.9127C22.0193 24.4049 20.8512 23.2444 20.5251 22.3494C20.4313 22.0917 20.4372 21.7181 20.5407 21.38C20.7336 20.7495 20.7724 20.4448 20.7114 20.0374C20.6943 19.9237 20.6989 19.888 20.735 19.8518C20.8117 19.7752 20.8768 19.8369 21.0824 20.1811C21.2148 20.403 21.2984 20.1973 21.252 19.7637C21.2277 19.5374 21.1302 19.4256 20.8981 19.3582C20.4147 19.2176 20.7502 18.9386 21.3745 18.9621C22.4163 19.0013 22.6416 18.9811 23.2264 18.7961C23.6421 18.6646 23.6761 18.6646 23.8785 18.7955C24.0837 18.9282 24.0984 18.9669 24.1159 19.4273C24.1458 20.2183 24.4304 20.1756 24.5983 19.3549C24.68 18.9555 24.7291 18.83 24.8576 18.6913C25.178 18.3455 25.3169 17.8423 25.2689 17.2021C25.2397 16.8122 25.174 16.7087 24.8609 16.5601C24.663 16.4662 24.4144 16.2171 24.1731 15.8709C23.7922 15.3243 23.6158 15.1579 23.264 15.0133C22.9414 14.8806 22.845 14.9405 22.9193 15.2272C23.0224 15.625 22.977 15.7137 22.5678 15.9132C21.9501 16.2144 21.4321 16.1953 20.9373 15.8531C20.4482 15.5149 20.3845 15.0905 20.7173 14.3885C20.8674 14.0717 20.8912 13.9852 20.951 13.5418C21.0591 12.7394 21.139 12.5722 21.4149 12.5722C21.6495 12.5722 21.7524 12.6681 21.8254 12.9546C21.9666 13.5091 22.1928 13.7312 22.4367 13.5546C22.605 13.4326 22.6207 13.379 22.5392 13.2031C22.4282 12.9637 22.4871 12.9261 22.7569 13.0643C23.1103 13.2452 23.7405 13.3177 24.1853 13.2286C24.6695 13.1316 24.8679 13.1713 24.978 13.387C25.0516 13.5313 25.0795 13.5485 25.2955 13.5823C25.6373 13.6358 25.6669 13.6664 25.593 13.8889C25.5022 14.1621 25.2196 14.3582 24.7766 14.4549C24.4928 14.5169 24.4886 14.5197 24.4886 14.6434C24.4886 14.8776 24.6967 14.9296 25.1598 14.8112C25.7948 14.6488 26.067 14.2413 26.2901 13.1185C26.4317 12.4057 26.4376 12.3953 26.7561 12.289C27.0214 12.2004 27.126 12.1977 27.1695 12.2786C27.2338 12.3982 27.243 12.5651 27.217 13.1435C27.1833 13.8929 27.2194 13.9399 27.5637 13.5957ZM24.8087 12.4644C24.9256 12.5703 25.104 12.7123 25.2051 12.7801C25.4188 12.9234 25.4304 12.937 25.3764 12.9818C25.2777 13.0637 24.9692 12.9484 24.669 12.7173C24.3858 12.4993 24.1918 12.4583 23.779 12.5295C23.3749 12.5992 23.339 12.4684 23.71 12.2782C24.0148 12.122 24.2619 12.1016 24.4828 12.2142C24.5452 12.246 24.6918 12.3586 24.8087 12.4644ZM19.5073 12.4484C19.4939 12.4831 19.4462 12.4872 19.2104 12.4741C18.8724 12.4552 18.6632 12.5018 18.2459 12.6889C17.9187 12.8356 17.7434 12.8786 17.6541 12.8341C17.5081 12.7613 17.5697 12.6848 17.9461 12.4708C18.0663 12.4025 18.2186 12.3155 18.2846 12.2774C18.6565 12.0626 19.0016 12.0113 19.2538 12.1334C19.3935 12.2011 19.5349 12.3766 19.5073 12.4484ZM25.6688 12.6268C25.4693 12.6268 24.835 12.1593 24.8789 12.0447C24.9003 11.989 25.3929 11.9779 25.5938 12.0284C25.9212 12.1108 25.9858 12.6268 25.6688 12.6268ZM17.674 12.2101C17.6049 12.2514 17.412 12.3744 17.2454 12.4833C16.9238 12.6936 16.8468 12.7158 16.7549 12.6239C16.657 12.526 16.7592 12.2713 16.9547 12.1264C17.129 11.9972 17.7743 11.9564 17.7909 12.0736C17.7977 12.1215 17.7722 12.1514 17.674 12.2101ZM26.8267 11.9167C26.7915 11.9167 26.7105 11.9351 26.6467 11.9576C26.4953 12.011 26.4662 12.0094 26.4008 11.944C26.281 11.8243 26.3714 11.6523 26.537 11.6844C26.5898 11.6946 26.6846 11.7121 26.7476 11.7233C26.9448 11.7583 27.0096 11.9167 26.8267 11.9167ZM16.3471 11.9572C16.2838 11.9349 16.197 11.9167 16.1543 11.9167C16.0432 11.9167 15.9984 11.8258 16.0808 11.7681C16.1143 11.7446 16.1789 11.7252 16.2244 11.725C16.2699 11.7248 16.3255 11.7127 16.348 11.6982C16.4109 11.6575 16.5159 11.6659 16.5712 11.716C16.7212 11.8518 16.5551 12.0306 16.3471 11.9572ZM18.6339 6.16639C17.8765 6.49557 17.4332 6.91798 16.9974 7.7258C16.8803 7.94278 16.8178 8.02359 16.6629 8.15886C16.2742 8.49834 16.2284 8.56619 16.0799 9.02163C15.8749 9.65032 15.7697 10.2334 15.7229 10.9986C15.696 11.4385 15.6719 11.4964 15.4755 11.5959C15.2868 11.6914 15.3081 11.7252 15.1347 11.055C14.6494 9.17946 14.6494 9.1816 15.3357 8.19278C15.5051 7.94877 15.4754 7.62437 15.237 7.11527C15.0947 6.81148 15.0783 6.82624 15.6378 6.75518C16.1581 6.6891 16.8241 6.48863 17.3225 6.24798C17.9083 5.96515 18.486 5.85799 18.7749 5.97863C18.9009 6.03126 18.8795 6.05967 18.6339 6.16639ZM27.7448 8.32522C27.8444 9.0161 27.7782 10.5813 27.6427 10.7371C27.5473 10.8468 27.5188 10.7975 27.3603 10.2493C27.0592 9.20806 26.8198 8.60415 26.4931 8.06175C26.2903 7.725 26.2592 7.79229 26.2549 8.5782L26.2513 9.23242L26.3329 9.34572C26.6834 9.83235 26.7691 10.0161 26.9105 10.5767C27.0279 11.0422 27.0607 11.4147 26.987 11.443C26.9594 11.4536 26.7639 11.4354 26.5527 11.4027C26.0882 11.3307 25.461 11.3156 24.2018 11.3461C23.0261 11.3745 22.8124 11.4294 22.2486 11.8484C21.9357 12.0809 21.9048 12.0933 21.7314 12.0562C21.5359 12.0143 21.3159 12.0184 21.1263 12.0675C20.9266 12.1192 20.8675 12.0981 20.5958 11.8782C19.9966 11.393 19.8182 11.3582 17.9222 11.3574L16.3685 11.3568L16.3823 11.1383C16.4063 10.7572 16.5245 10.5804 16.8585 10.4262C17.1035 10.3131 17.0839 10.3554 17.2332 9.61478C17.5277 8.1527 17.9671 7.35433 18.7703 6.82128C19.364 6.42729 20.4724 6.46196 21.3403 6.90172C21.5381 7.00193 21.5512 6.9982 21.8186 6.7672C22.1378 6.49152 22.1378 6.49207 21.7774 6.13987C20.5226 4.91396 19.0867 4.64593 17.3683 5.31679C17.1603 5.39801 16.9862 5.45458 16.9815 5.44238C16.9029 5.23836 17.9952 4.47996 18.7318 4.22709C19.2261 4.0574 19.1847 3.8885 18.6487 3.88759C18.4417 3.88724 18.4056 3.84242 18.5178 3.72535C18.883 3.34425 20.8644 2.98413 21.9794 3.09634C23.2758 3.22683 24.5041 3.72626 25.6879 4.60418C26.8601 5.47349 27.5007 6.63246 27.7448 8.32522ZM17.1129 3.76974C17.1128 4.00003 16.6809 4.50862 16.348 4.67032C16.019 4.83017 15.8404 4.87384 15.2333 4.94282C15.1685 4.95019 15.109 4.97327 15.1011 4.99407C15.0536 5.11787 15.5484 5.69976 15.7949 5.81C16.0275 5.91399 15.8762 5.96545 15.269 5.98873C14.6574 6.01218 14.4797 6.097 14.323 6.4408C14.2478 6.60578 14.2582 6.65051 14.4354 6.92028C14.8381 7.53334 14.8276 7.8854 14.3965 8.2284C13.8547 8.65944 13.8498 8.7331 14.2565 10.388C14.4133 11.0259 14.5597 11.5987 14.582 11.6609C14.6242 11.7786 14.6051 11.8347 14.5229 11.8347C14.4429 11.8347 14.2764 11.9541 14.2231 12.0496C13.9972 12.4548 14.0624 13.0788 14.4735 14.443C14.7644 15.4083 14.7995 15.5378 14.888 15.9723C15.1097 17.0613 15.3756 17.4459 15.9016 17.4381C16.1125 17.435 16.1197 17.4444 16.1422 17.7475C16.1828 18.2956 16.318 18.8279 16.5377 19.3043C16.6088 19.4583 16.6486 19.5953 16.6725 19.7686C16.7789 20.5398 17.2568 21.3994 17.978 22.1169C18.2845 22.4219 18.5277 22.6194 19.3052 23.1947C19.6169 23.4253 19.872 23.6227 19.872 23.6333C19.872 23.6439 19.5923 23.6595 19.2506 23.6681C18.6449 23.6832 18.3833 23.7177 18.3088 23.7922C18.2255 23.8756 18.1961 25.2305 18.2744 25.3819C18.3668 25.5606 18.659 25.5761 20.5071 25.5005C20.9824 25.4811 20.9564 25.4437 20.7742 25.8849C20.6994 26.066 20.5105 26.5397 20.3543 26.9378C19.9997 27.8413 19.6653 28.5995 19.3199 29.2829C18.9834 29.9485 18.9735 29.8763 19.4137 29.9677C19.4997 29.9855 19.694 30.0608 19.8457 30.135C20.2381 30.3268 20.2246 30.3309 20.4024 29.9624C20.7172 29.3097 21.2838 27.878 21.4235 27.3816C21.4626 27.2426 21.5045 27.1289 21.5165 27.1289C21.545 27.1289 21.5417 29.6446 21.5124 30.1741C21.4813 30.7371 21.4958 30.7537 21.9262 30.6514C22.0838 30.6139 22.2787 30.5896 22.4394 30.5873C22.7474 30.583 22.7472 30.5833 22.7933 30.2156C22.9189 29.2137 22.6928 26.839 22.3705 25.7731C22.2823 25.4813 22.2831 25.4734 22.4057 25.4531C22.6043 25.4204 23.443 25.435 23.9572 25.4803C24.5321 25.531 24.6066 25.5241 24.6618 25.4147C24.7261 25.2874 24.7459 23.9704 24.6854 23.8491C24.594 23.6661 24.1871 23.5831 23.5393 23.6153C23.1487 23.6348 23.1447 23.6305 23.4038 23.471C24.259 22.9445 25.5595 21.7849 25.9187 21.2282C26.4695 20.3747 26.9465 18.8169 26.947 17.8697C26.9472 17.4583 26.9561 17.4448 27.2398 17.4279C27.7865 17.3953 27.9552 17.1147 28.4078 15.485C28.8826 13.7752 29.0041 13.2129 29.0072 12.7087C29.0104 12.2076 28.9619 12.1136 28.579 11.8792C28.4881 11.8235 28.4798 11.8698 28.7133 11.1303C28.9601 10.3488 29.0225 10.105 29.0417 9.84925C29.0417 9.84925 29.0852 9.69522 29.0585 9.62526C29.0361 9.56648 29.1085 9.67362 28.9227 9.49421C28.6821 9.26203 28.6489 9.18947 28.6001 8.78958C28.1957 5.47502 25.9313 3.05126 22.7403 2.51728C22.4096 2.46193 21.0942 2.42244 20.7598 2.45774C19.8794 2.55066 18.6789 2.87968 17.7428 3.28438C17.2174 3.51153 17.113 3.59207 17.1129 3.76974Z" fill="black"/>
<path d="M32.8078 34.6215H33.3867C33.4763 34.6215 33.5531 34.5588 33.5725 34.4713L33.9791 32.6414C34.005 32.5249 33.9362 32.4091 33.8213 32.3769C33.1628 32.1922 32.4825 32.095 31.7986 32.0947C27.4442 32.0931 26.34 34.5546 26.1615 36.2214C25.961 38.0947 27.2575 39.9326 30.4539 39.9326C31.7998 39.9326 32.6777 39.6989 32.9912 39.5993C33.0695 39.5744 33.1283 39.5091 33.1434 39.4283L33.3179 38.4916C33.3449 38.3469 33.213 38.2256 33.0724 38.2694C32.5059 38.4457 31.9153 38.531 31.3219 38.5305C29.7949 38.5291 28.6896 37.6135 28.8313 36.0358C28.9686 34.5067 29.9971 33.3437 31.4153 33.3437C32.2688 33.3437 32.6176 33.7885 32.6176 34.4031C32.6176 34.5295 32.6985 34.6215 32.8078 34.6215ZM12.657 38.3692L13.0783 36.446C14.5209 39.0827 14.9987 39.8415 16.7314 39.8415H18.293C18.3813 39.8415 18.4579 39.7811 18.4775 39.695L18.5886 39.2061C18.6173 39.0798 18.5269 38.9574 18.3974 38.955C18.0062 38.9475 17.8021 38.8672 17.4249 38.3571L15.4155 35.6393L18.0195 33.4669C18.3016 33.2315 18.6674 33.1189 19.0454 33.0837C19.1403 33.0748 19.2079 33.0159 19.2266 32.9348L19.3378 32.4524C19.3653 32.3327 19.2736 32.2191 19.1509 32.2191H16.0125C15.9154 32.2191 15.8316 32.2867 15.8107 32.3814L15.7056 32.8591C15.6821 32.9654 15.7453 33.0671 15.848 33.1036C16.0342 33.1699 16.0721 33.351 15.9124 33.4837L13.2383 35.7059L13.6974 33.608C13.7514 33.3613 13.9491 33.1722 14.2053 33.0987C14.2894 33.0745 14.3447 33.0166 14.3608 32.9448L14.4719 32.4491C14.4983 32.3315 14.4091 32.2191 14.2885 32.2191L10.8432 32.2191C10.7454 32.2191 10.6609 32.287 10.6398 32.3825L10.5286 32.8847C10.5059 32.9874 10.5648 33.0865 10.6805 33.1297C10.9149 33.2172 11.1673 33.4121 11.0579 33.9136L10.2365 37.6761C10.0125 38.7021 9.6763 38.9515 9.33508 38.9515C9.24017 38.9515 9.16836 39.0268 9.1483 39.1138L9.03716 39.596C9.00873 39.7194 9.10396 39.8382 9.23057 39.8382H12.8537C12.9424 39.8382 13.018 39.7768 13.0382 39.6905L13.1682 39.1327C13.1899 39.0398 13.1398 38.9444 13.0388 38.906C12.8421 38.8313 12.5916 38.6677 12.657 38.3692ZM20.2846 33.9103L19.0254 39.606C18.9993 39.7241 19.0889 39.8361 19.2099 39.8361H22.0995C22.1882 39.8361 22.2648 39.7748 22.284 39.6883L22.4106 39.1193C22.4293 39.0351 22.3853 38.9515 22.2934 38.9082C22.0951 38.8148 21.8215 38.6055 21.915 38.206C21.9271 38.1543 22.1929 36.9172 22.1929 36.9172H24.649C24.7385 36.9172 24.8152 36.8543 24.8346 36.767L25.0658 35.727C25.0923 35.6078 25.0023 35.4948 24.8802 35.4948H22.5085L22.953 33.4769H24.6101C25.1458 33.4769 25.3119 33.7572 25.277 34.2465C25.268 34.3728 25.3541 34.4713 25.468 34.4713H26.0782C26.1673 34.4713 26.2445 34.4094 26.2638 34.3224L26.6795 32.4513C26.706 32.3321 26.6149 32.2191 26.4928 32.2191L20.0723 32.2191C19.9746 32.2191 19.89 32.2872 19.8689 32.3825L19.7578 32.8847C19.7361 32.9828 19.7914 33.0799 19.8962 33.1186C20.1185 33.2008 20.3967 33.4032 20.2846 33.9103Z" fill="black"/>
</svg>
