<svg width="21" height="18" viewBox="0 0 21 18" fill="none" xmlns="http://www.w3.org/2000/svg">
<mask id="mask0_31_46" style="mask-type:luminance" maskUnits="userSpaceOnUse" x="0" y="0" width="21" height="18">
<path d="M20.4 0.399902H0V17.1999H20.4V0.399902Z" fill="white"/>
</mask>
<g mask="url(#mask0_31_46)">
<path d="M3.4438 0.799805H16.9438C18.6838 0.799805 20.0998 2.15629 20.1958 3.86545V4.04989V13.5498C20.1958 15.2828 18.8398 16.6991 17.1358 16.7947L16.9438 16.7998H3.4438C1.7158 16.7998 0.299857 15.4434 0.203857 13.7342V13.5498V4.04989C0.203857 2.31685 1.55977 0.900606 3.26377 0.804966L3.4438 0.799805ZM18.6958 6.17281L10.5479 10.4635C10.3559 10.5622 10.1399 10.5762 9.94785 10.5058L9.85176 10.4635L1.70386 6.17377V13.5498C1.70386 14.468 2.4118 15.221 3.2998 15.294L3.4438 15.2998H16.9438C17.8678 15.2998 18.6238 14.5927 18.6958 13.6933V13.5498V6.17281ZM16.9438 2.2998H3.4438C2.5318 2.2998 1.77586 3.00697 1.70386 3.90625V4.04989V4.47876L10.1998 8.95225L18.6958 4.47781V4.04989C18.6958 3.13165 17.9878 2.37864 17.0878 2.30568L16.9438 2.2998Z" fill="#0C20D6"/>
</g>
</svg>
