<svg width="58" height="58" viewBox="0 0 58 58" fill="none" xmlns="http://www.w3.org/2000/svg">
<g clip-path="url(#clip0_59_489)">
<path d="M48.3332 9.66675C49.5526 9.66636 50.7271 10.1269 51.6212 10.956C52.5154 11.7852 53.063 12.9216 53.1545 14.1376L53.1666 14.5001V43.5001C53.167 44.7195 52.7064 45.894 51.8773 46.7881C51.0482 47.6822 49.9117 48.2299 48.6957 48.3213L48.3332 48.3334H9.66658C8.44719 48.3338 7.27272 47.8733 6.37859 47.0441C5.48447 46.215 4.93679 45.0785 4.84534 43.8626L4.83325 43.5001V14.5001C4.83287 13.2807 5.2934 12.1062 6.12254 11.2121C6.95167 10.318 8.08813 9.77029 9.30409 9.67883L9.66658 9.66675H48.3332ZM48.3332 17.9172L31.5616 34.6889C30.8819 35.3678 29.9605 35.7491 28.9999 35.7491C28.0393 35.7491 27.1179 35.3678 26.4382 34.6889L9.66658 17.9172V43.5001H48.3332V17.9172ZM44.9161 14.5001H13.0838L28.9999 30.4163L44.9161 14.5001Z" fill="black"/>
</g>
<defs>
<clipPath id="clip0_59_489">
<rect width="58" height="58" fill="white"/>
</clipPath>
</defs>
</svg>
