<svg width="64" height="64" viewBox="0 0 64 64" fill="none" xmlns="http://www.w3.org/2000/svg">
<path d="M32 31.9999V32.0266M21.3333 31.9999V32.0266M42.6667 31.9999V32.0266M8 53.3332L11.4667 42.9332C8.47052 38.502 7.38665 33.2543 8.41658 28.166C9.44652 23.0777 12.5202 18.495 17.066 15.2699C21.6119 12.0449 27.3207 10.3969 33.1309 10.6325C38.9411 10.8681 44.4574 12.9712 48.6541 16.5507C52.8508 20.1302 55.4423 24.9427 55.9468 30.0932C56.4514 35.2437 54.8345 40.3818 51.397 44.5522C47.9594 48.7226 42.9351 51.6415 37.2581 52.7662C31.5812 53.8908 25.6379 53.1447 20.5333 50.6666L8 53.3332Z" stroke="black" stroke-width="2" stroke-linecap="round" stroke-linejoin="round"/>
</svg>
