<svg width="15" height="15" viewBox="0 0 15 15" fill="none" xmlns="http://www.w3.org/2000/svg">
<path d="M14.2857 11.8636H13.75V6.06818C13.75 3.66307 11.4219 1.67557 8.39286 1.34489V0.681818C8.39286 0.305114 7.9933 0 7.5 0C7.0067 0 6.60714 0.305114 6.60714 0.681818V1.34489C3.57812 1.67557 1.25 3.66307 1.25 6.06818V11.8636H0.714286C0.319196 11.8636 0 12.1074 0 12.4091V12.9545C0 13.0295 0.0803571 13.0909 0.178571 13.0909H5C5 14.1443 6.12054 15 7.5 15C8.87946 15 10 14.1443 10 13.0909H14.8214C14.9196 13.0909 15 13.0295 15 12.9545V12.4091C15 12.1074 14.6808 11.8636 14.2857 11.8636ZM7.5 13.9091C6.90848 13.9091 6.42857 13.5426 6.42857 13.0909H8.57143C8.57143 13.5426 8.09152 13.9091 7.5 13.9091ZM2.85714 11.8636V6.06818C2.85714 5.12045 3.33929 4.23068 4.21652 3.5608C5.09375 2.89091 6.25893 2.52273 7.5 2.52273C8.74107 2.52273 9.90625 2.89091 10.7835 3.5608C11.6607 4.23068 12.1429 5.12045 12.1429 6.06818V11.8636H2.85714Z" fill="black"/>
</svg>
