<svg width="59" height="15" viewBox="0 0 59 15" fill="none" xmlns="http://www.w3.org/2000/svg">
<path fill-rule="evenodd" clip-rule="evenodd" d="M7.09266 0.538146C5.76626 0.386686 4.42913 0.684285 3.26508 1.39004C2.10103 2.09579 1.1672 3.17505 0.591937 4.47947C0.0166765 5.7839 -0.171771 7.24945 0.0524977 8.67468C0.276766 10.0999 0.902741 11.4149 1.84438 12.4388C2.78602 13.4627 3.9971 14.1454 5.31115 14.3929C6.62521 14.6404 7.97773 14.4407 9.18281 13.8211C10.3879 13.2015 11.3864 12.1926 12.041 10.9329C12.6957 9.67321 12.9743 8.22466 12.8387 6.78633C12.6895 5.18754 12.0366 3.69332 10.99 2.55527C9.94342 1.41722 8.56705 0.704867 7.09266 0.538146ZM6.88347 11.2014C6.17009 11.3052 5.44465 11.164 4.80911 10.7977C4.17358 10.4314 3.65989 9.8585 3.34024 9.15941C3.0206 8.46031 2.91107 7.67022 3.02705 6.90016C3.14302 6.1301 3.47868 5.41879 3.98684 4.86621C4.49499 4.31362 5.15011 3.94754 5.86011 3.81941C6.57011 3.69127 7.2993 3.80753 7.94519 4.15185C8.59109 4.49617 9.12123 5.05122 9.46109 5.73902C9.80096 6.42681 9.93347 7.21276 9.84 7.98641C9.74191 8.80015 9.39909 9.55615 8.86461 10.1374C8.33014 10.7186 7.63382 11.0925 6.88347 11.2014ZM16.2916 0.815006C16.0677 0.815587 15.8468 0.870273 15.6448 0.975086C15.4428 1.0799 15.265 1.2322 15.1242 1.42091C14.9833 1.60962 14.8831 1.82998 14.8307 2.06598C14.7784 2.30197 14.7752 2.54765 14.8214 2.78514C14.9631 3.55453 15.626 4.08024 16.3482 4.08024H20.5392L14.0171 13.4367C13.9688 13.5057 13.9393 13.588 13.9318 13.6743C13.9243 13.7605 13.939 13.8473 13.9745 13.925C14.0099 14.0026 14.0646 14.068 14.1324 14.1139C14.2002 14.1597 14.2785 14.1842 14.3584 14.1845H24.589C25.3107 14.1845 25.9741 13.6589 26.1158 12.8894C26.162 12.652 26.1589 12.4063 26.1066 12.1703C26.0542 11.9344 25.954 11.714 25.8133 11.5253C25.6725 11.3366 25.4947 11.1842 25.2928 11.0794C25.091 10.9745 24.87 10.9197 24.6462 10.919H19.5398L26.0569 1.56986C26.1056 1.50012 26.1354 1.41704 26.143 1.32995C26.1506 1.24286 26.1356 1.1552 26.0998 1.07681C26.064 0.998423 26.0087 0.932403 25.9402 0.886158C25.8717 0.839914 25.7927 0.815275 25.712 0.815006H16.2916ZM57.1724 0.85267C56.8337 0.939977 56.5326 1.14998 56.3189 1.44794C56.1052 1.74591 55.9918 2.11401 55.9973 2.49136V7.92787L47.871 0.917689C47.8073 0.862852 47.7305 0.828631 47.6497 0.818962C47.5688 0.809294 47.487 0.82457 47.4138 0.863034C47.3406 0.901498 47.2789 0.961587 47.2358 1.03639C47.1927 1.11119 47.1699 1.19767 47.1701 1.28587V12.5111C47.1646 12.8884 47.2781 13.2565 47.4917 13.5545C47.7054 13.8525 48.0065 14.0625 48.3452 14.1498C48.5651 14.2022 48.7931 14.2005 49.0124 14.1447C49.2316 14.0889 49.4365 13.9804 49.6119 13.8273C49.7874 13.6743 49.9288 13.4804 50.0259 13.2602C50.1231 13.0399 50.1733 12.7988 50.173 12.5547V7.07112L58.2994 14.0814C58.3631 14.1362 58.4398 14.1704 58.5206 14.1801C58.6015 14.1897 58.6832 14.1745 58.7564 14.136C58.8296 14.0976 58.8913 14.0375 58.9344 13.9628C58.9775 13.888 59.0002 13.8015 59 13.7134V2.44723C59.0003 2.20316 58.95 1.96214 58.8528 1.74195C58.7557 1.52176 58.6142 1.328 58.4388 1.17498C58.2634 1.02195 58.0586 0.913546 57.8394 0.857763C57.6202 0.801981 57.3923 0.80024 57.1724 0.85267ZM36.0137 3.7677C39.4509 3.7677 42.0191 5.73677 42.0191 7.4981C42.0191 9.25944 39.4509 11.2285 36.0137 11.2285C32.5764 11.2285 30.0082 9.25944 30.0082 7.4981C30.0082 5.73677 32.5764 3.7677 36.0137 3.7677ZM36.0137 0.502597C31.0384 0.502597 27.0053 3.63462 27.0053 7.4981C27.0053 11.3616 31.0384 14.4936 36.0137 14.4936C40.9889 14.4936 45.0219 11.3616 45.0219 7.4981C45.0219 3.63462 40.9888 0.502597 36.0137 0.502597Z" fill="#0069FF"/>
</svg>
