<svg width="43" height="42" viewBox="0 0 43 42" fill="none" xmlns="http://www.w3.org/2000/svg">
<g clip-path="url(#clip0_44_7)">
<path d="M39.1503 41.7174H28.473C27.529 41.7174 26.6238 41.3608 25.9563 40.726C25.2888 40.0912 24.9139 39.2303 24.9139 38.3326V28.178H17.7956V38.3326C17.7956 39.2303 17.4206 40.0912 16.7532 40.726C16.0857 41.3608 15.1804 41.7174 14.2365 41.7174H3.55912C2.61518 41.7174 1.70991 41.3608 1.04244 40.726C0.374978 40.0912 0 39.2303 0 38.3326V18.7638C0.000156926 18.2941 0.103078 17.8297 0.302218 17.3999C0.501359 16.9701 0.79236 16.5845 1.15671 16.2674L18.9523 0.887452C19.6084 0.316593 20.4655 0 21.3547 0C22.244 0 23.101 0.316593 23.7571 0.887452L41.5527 16.2674C41.9171 16.5845 42.2081 16.9701 42.4072 17.3999C42.6064 17.8297 42.7093 18.2941 42.7095 18.7638V38.3326C42.7095 39.2303 42.3345 40.0912 41.667 40.726C40.9996 41.3608 40.0943 41.7174 39.1503 41.7174ZM17.7956 24.7931H24.9139C25.8578 24.7931 26.7631 25.1497 27.4305 25.7845C28.098 26.4193 28.473 27.2802 28.473 28.178V38.3326H39.1503V18.7638L21.3547 3.38379L3.55912 18.7638V38.3326H14.2365V28.178C14.2365 27.2802 14.6115 26.4193 15.2789 25.7845C15.9464 25.1497 16.8517 24.7931 17.7956 24.7931Z" fill="#332B2B"/>
</g>
<defs>
<clipPath id="clip0_44_7">
<rect width="43" height="42" fill="white"/>
</clipPath>
</defs>
</svg>
