<svg width="123" height="123" viewBox="0 0 123 123" fill="none" xmlns="http://www.w3.org/2000/svg">
<path d="M61.4714 6C50.8531 6 42.2527 15.458 42.2527 27.1214C42.2767 32.4786 45.5679 37.6196 48.8831 41.5114L38.3849 40.046C38.6251 40.9589 38.6972 41.9919 38.3368 43.073C37.8564 44.4903 36.5111 45.3312 35.4781 45.6435C34.421 45.9318 33.4841 45.9558 32.6433 46.0038C29.4962 45.9077 31.2019 46.8446 32.5472 48.1419C33.2679 48.8386 34.1087 49.6073 34.7814 50.6404C35.4781 51.6974 36.0066 53.2829 35.4781 54.8204C34.9736 56.2859 33.6523 57.1747 32.5712 57.5591C31.4902 57.9195 30.4572 58.0155 29.5443 58.1116C27.5503 58.448 26.7335 58.0396 27.4782 60.0095C27.7906 60.7782 28.3431 61.7152 28.9677 62.58L44.655 67.0724C41.7241 75.8409 37.448 86.123 33.6042 95.5161C33.9646 95.372 34.3249 95.2519 34.7093 95.1558C36.1747 94.7234 37.8564 94.7714 39.1536 95.4681C40.4509 96.1888 41.0515 97.6542 41.1476 98.7353C41.2677 99.8163 41.1236 100.753 41.0034 101.594C40.4269 104.669 41.532 103.204 43.0935 102.075C43.9343 101.498 44.8472 100.801 45.9763 100.321C47.1294 99.8404 48.787 99.6001 50.2044 100.417C51.5497 101.162 52.1743 102.603 52.3665 103.756C52.3906 103.924 52.4146 104.093 52.4146 104.261C54.5286 99.9364 57.7958 94.8675 61.4714 94.8675C65.147 94.8675 68.4142 99.9364 70.5282 104.261C70.5282 104.093 70.5523 103.924 70.5763 103.756C70.7685 102.603 71.3931 101.162 72.7384 100.417C74.1558 99.6001 75.8134 99.8404 76.9665 100.321C78.0956 100.801 79.0085 101.498 79.8493 102.075C82.1556 103.564 82.2757 104.357 81.9394 101.594C81.8193 100.753 81.6751 99.8163 81.7952 98.7353C81.8913 97.6542 82.4919 96.1888 83.7892 95.4681C84.5339 95.0597 85.3027 94.8915 86.0714 94.8675C86.8161 94.8435 87.5609 94.9636 88.2335 95.1558C88.6179 95.2519 88.9782 95.372 89.3626 95.5161C85.5189 86.147 81.2427 75.913 78.3118 67.1685L93.9271 62.628C94.5757 61.7632 95.1523 60.8023 95.4646 60.0095C96.3534 58.0636 94.7919 58.3038 93.3986 58.1116C92.4857 58.0155 91.4527 57.9195 90.3716 57.5591C89.2906 57.1747 87.9693 56.2859 87.4648 54.8204C86.9363 53.2829 87.4648 51.6974 88.1615 50.6404C88.8341 49.6073 89.6749 48.8386 90.3956 48.1419C92.1974 46.172 93.1343 46.0999 90.2995 46.0038C89.4587 45.9558 88.5218 45.9318 87.4648 45.6435C86.4318 45.3312 85.0864 44.4903 84.606 43.073C84.2456 42.0159 84.3177 40.9829 84.5579 40.046L73.9876 41.5595C77.3509 37.6677 80.6661 32.5027 80.6902 27.1214C80.6902 15.458 72.0898 6 61.4714 6ZM53.7839 21.8435C55.898 21.8435 57.6277 23.5611 57.6277 25.68C57.6277 27.7941 55.898 29.5238 53.7839 29.5238C51.6698 29.5238 49.9402 27.7941 49.9402 25.68C49.9402 23.5611 51.6698 21.8435 53.7839 21.8435ZM69.1589 21.8435C71.273 21.8435 73.0027 23.5611 73.0027 25.68C73.0027 27.7941 71.273 29.5238 69.1589 29.5238C67.0448 29.5238 65.3152 27.7941 65.3152 25.68C65.3152 23.5611 67.0448 21.8435 69.1589 21.8435ZM51.4777 31.83C55.0571 35.4335 58.3484 36.971 61.4714 36.971C64.5945 36.971 67.8857 35.4335 71.4652 31.83L74.5402 34.905C70.4322 38.989 66.0359 41.2952 61.4714 41.2952C56.907 41.2952 52.5107 38.989 48.4027 34.905L51.4777 31.83ZM28.5593 38.6527C9.33815 38.6527 9.33815 56.43 20.8694 60.2738L23.2285 60.9464C22.8417 59.7693 22.6591 58.472 23.1276 57.1267C23.6321 55.6612 24.9558 54.7724 26.0368 54.388C27.1179 54.0277 28.1509 53.9316 29.0638 53.8355C32.4751 53.5232 31.322 52.9226 29.5202 51.2409C28.7995 50.5202 27.9587 49.7515 27.2861 48.6945C26.6134 47.6614 26.1089 46.0279 26.6855 44.4904C27.214 43.097 28.5593 42.3042 29.6163 42.0159C31.2019 41.5595 32.6433 41.8478 34.2288 41.4874C34.1327 40.6466 33.7003 39.998 33.2679 39.3253L28.5593 38.6527ZM94.3835 38.6527L89.6749 39.3253C89.2425 39.998 88.7861 40.6706 88.714 41.4874C90.2755 41.7757 91.9331 41.6316 93.3265 42.0159C94.3835 42.3042 95.7288 43.097 96.2573 44.4904C96.8339 46.0279 96.3294 47.6614 95.6568 48.6945C94.9841 49.7515 94.1433 50.5202 93.4226 51.2409C90.9482 53.6913 90.8761 53.4511 93.879 53.8355C94.7919 53.9316 95.8249 54.0277 96.906 54.388C97.987 54.7724 99.3083 55.6612 99.8128 57.1267C100.269 58.472 100.101 59.7693 99.7167 60.9704L102.071 60.2738C113.602 56.43 113.602 38.6527 94.3835 38.6527ZM49.9402 45.8597L57.8439 50.4722C58.3724 48.9107 59.8378 47.8777 61.4714 47.8777C63.105 47.8777 64.5704 48.9107 65.0989 50.4722L73.0027 45.8597V57.3909L64.6425 53.9075C63.9218 54.9405 62.7447 55.5652 61.4714 55.5652C60.1982 55.5652 59.021 54.9405 58.3003 53.9075L49.9402 57.3909V45.8597ZM61.4714 60.2738C63.5855 60.2738 65.3152 62.0034 65.3152 64.1175C65.3152 66.2316 63.5855 67.9613 61.4714 67.9613C59.3573 67.9613 57.6277 66.2316 57.6277 64.1175C57.6277 62.0034 59.3573 60.2738 61.4714 60.2738ZM61.4714 72.7659C63.5855 72.7659 65.3152 74.4956 65.3152 76.6097C65.3152 78.7238 63.5855 80.4534 61.4714 80.4534C59.3573 80.4534 57.6277 78.7238 57.6277 76.6097C57.6277 74.4956 59.3573 72.7659 61.4714 72.7659ZM36.5351 99.2157C36.3669 99.2157 36.1267 99.2398 35.8144 99.3359C35.0216 99.5281 34.0126 99.9845 33.0757 100.513C32.0427 101.114 31.1538 101.474 30.7214 102.555C23.3654 117.257 40.6431 121.413 48.8831 111.66C48.4267 110.987 48.1864 110.267 48.0904 109.618C47.9222 108.465 47.9943 107.456 48.0663 106.543C48.0423 105.774 48.2345 104.933 48.0423 104.189C47.4657 104.309 46.2406 105.174 45.6159 105.606C44.7751 106.207 43.8622 106.879 42.7091 107.36C41.58 107.84 39.8743 108.032 38.481 107.192H38.457C37.1837 106.399 36.6552 104.933 36.5591 103.876C36.463 102.795 36.6072 101.858 36.7273 101.042C36.8234 100.225 36.8714 99.5521 36.8474 99.2157H36.5351ZM86.0954 99.2157C86.0714 99.5521 86.1195 100.225 86.2156 101.042C86.3357 101.858 86.4798 102.795 86.3837 103.876C86.2876 104.933 85.7591 106.399 84.4859 107.192H84.4618C83.0685 108.032 81.3628 107.84 80.2337 107.36C79.0806 106.879 78.1677 106.207 77.3269 105.606C76.5581 105.101 75.7173 104.429 74.9005 104.189C74.7804 104.909 74.8525 105.894 74.8765 106.543C74.9486 107.456 75.0206 108.465 74.8525 109.618C74.7564 110.267 74.5161 110.987 74.0597 111.66C82.2997 121.413 99.5726 117.257 92.2214 102.555C91.9091 101.474 90.6599 100.969 89.8671 100.513C88.9302 99.9845 87.9212 99.5281 87.1284 99.3359C86.7921 99.2157 86.4558 99.2157 86.0954 99.2157Z" fill="#915A32"/>
</svg>
