<svg width="23" height="24" viewBox="0 0 23 24" fill="none" xmlns="http://www.w3.org/2000/svg">
<g clip-path="url(#clip0_71_255)">
<path d="M18.4163 17.5H17.5189L17.2009 17.1625C18.3526 15.6925 18.9855 13.8159 18.9843 11.875C18.9843 10.268 18.5512 8.69714 17.7399 7.361C16.9286 6.02485 15.7755 4.98344 14.4263 4.36848C13.0772 3.75352 11.5926 3.59262 10.1603 3.90612C8.72808 4.21963 7.41246 4.99346 6.37986 6.12976C5.34726 7.26606 4.64405 8.7138 4.35916 10.2899C4.07427 11.866 4.22048 13.4997 4.77932 14.9843C5.33816 16.469 6.28452 17.7379 7.49873 18.6307C8.71294 19.5235 10.1405 20 11.6008 20C13.4296 20 15.1108 19.2625 16.4057 18.0375L16.7124 18.3875V19.375L22.392 25.6125L24.0846 23.75L18.4163 17.5ZM11.6008 17.5C8.77234 17.5 6.48913 14.9875 6.48913 11.875C6.48913 8.7625 8.77234 6.25 11.6008 6.25C14.4292 6.25 16.7124 8.7625 16.7124 11.875C16.7124 14.9875 14.4292 17.5 11.6008 17.5Z" fill="black"/>
</g>
<defs>
<clipPath id="clip0_71_255">
<rect width="21.8097" height="24" fill="white" transform="translate(0.80957)"/>
</clipPath>
</defs>
</svg>
