<svg width="16" height="22" viewBox="0 0 16 22" fill="none" xmlns="http://www.w3.org/2000/svg">
<mask id="mask0_31_39" style="mask-type:luminance" maskUnits="userSpaceOnUse" x="0" y="0" width="16" height="22">
<path d="M15.6 0H0V21.6H15.6V0Z" fill="white"/>
</mask>
<g mask="url(#mask0_31_39)">
<path d="M2.8562 1.21796L4.02016 0.866246C5.34016 0.467606 6.75616 1.11176 7.32016 2.37164L8.23217 4.37733C8.71217 5.45121 8.46014 6.71324 7.59614 7.51616L6.09614 8.9096C6.06014 8.95028 6.02422 9.00536 6.02422 9.06464C5.97622 9.46184 6.25216 10.2352 6.86416 11.3096C7.32016 12.0908 7.72817 12.6387 8.07617 12.9468C8.31617 13.1614 8.44815 13.2079 8.50815 13.1911L10.5122 12.5764C11.6402 12.2323 12.8642 12.6427 13.5482 13.5972L14.8322 15.3722C15.6362 16.4894 15.4921 18.0307 14.4961 18.978L13.6082 19.8174C12.6482 20.7231 11.2922 21.0607 10.0202 20.7066C7.26016 19.9378 4.80022 17.6137 2.58022 13.7826C0.372221 9.94617 -0.407797 6.64173 0.312203 3.86996C0.636203 2.60144 1.5962 1.59608 2.8562 1.21796ZM3.28818 2.65412C2.53218 2.88104 1.95616 3.48428 1.76416 4.24532C1.15216 6.5768 1.84818 9.50577 3.88818 13.0326C5.91618 16.5548 8.10026 18.615 10.4163 19.2618C11.1843 19.4743 12.0002 19.2717 12.5762 18.7282L13.4642 17.8888C13.9202 17.4583 13.9802 16.7577 13.6202 16.2499L12.3362 14.4748C12.0242 14.041 11.4722 13.8544 10.9562 14.0109L8.94013 14.627C7.76413 14.9757 6.70821 14.0342 5.56821 12.0596C4.80021 10.7288 4.44023 9.70016 4.53623 8.8982C4.57223 8.48276 4.77617 8.09768 5.07617 7.81256L6.57617 6.41913C6.96017 6.05408 7.08016 5.48048 6.86416 4.99244L5.95215 2.98664C5.70015 2.414 5.05215 2.1212 4.45215 2.3024L3.28818 2.65412Z" fill="#0C20D6"/>
</g>
</svg>
