<svg width="34" height="22" viewBox="0 0 34 22" fill="none" xmlns="http://www.w3.org/2000/svg">
<path d="M33.5204 10.6583C33.4726 10.5486 32.3026 7.95406 29.6898 5.34125C27.2654 2.91969 23.1001 0.03125 16.9998 0.03125C10.8995 0.03125 6.73417 2.91969 4.30979 5.34125C1.69698 7.95406 0.526982 10.5444 0.47917 10.6583C0.431093 10.7663 0.40625 10.8832 0.40625 11.0014C0.40625 11.1196 0.431093 11.2365 0.47917 11.3445C0.526982 11.4528 1.69698 14.0473 4.30979 16.6602C6.73417 19.0817 10.8995 21.9688 16.9998 21.9688C23.1001 21.9688 27.2654 19.0817 29.6898 16.6602C32.3026 14.0473 33.4726 11.457 33.5204 11.3445C33.5685 11.2365 33.5933 11.1196 33.5933 11.0014C33.5933 10.8832 33.5685 10.7663 33.5204 10.6583ZM16.9998 20.2812C12.587 20.2812 8.73386 18.6753 5.54589 15.5098C4.2095 14.1817 3.07862 12.6617 2.19058 11C3.07837 9.33855 4.20927 7.81898 5.54589 6.49156C8.73386 3.32469 12.587 1.71875 16.9998 1.71875C21.4126 1.71875 25.2657 3.32469 28.4537 6.49156C29.7903 7.81898 30.9212 9.33855 31.809 11C30.9132 12.717 26.4217 20.2812 16.9998 20.2812ZM16.9998 4.53125C15.7204 4.53125 14.4697 4.91064 13.406 5.62143C12.3422 6.33223 11.5131 7.34251 11.0234 8.52452C10.5338 9.70653 10.4057 11.0072 10.6553 12.262C10.9049 13.5168 11.521 14.6694 12.4257 15.5741C13.3304 16.4788 14.483 17.0949 15.7378 17.3445C16.9926 17.5941 18.2933 17.466 19.4753 16.9763C20.6573 16.4867 21.6676 15.6576 22.3784 14.5938C23.0892 13.5301 23.4685 12.2794 23.4685 11C23.4663 9.28507 22.7841 7.64101 21.5714 6.42837C20.3588 5.21573 18.7147 4.53348 16.9998 4.53125ZM16.9998 15.7812C16.0542 15.7812 15.1297 15.5008 14.3435 14.9755C13.5572 14.4501 12.9444 13.7034 12.5825 12.8297C12.2206 11.956 12.1259 10.9947 12.3104 10.0672C12.4949 9.13975 12.9503 8.28782 13.6189 7.61915C14.2876 6.95048 15.1395 6.49511 16.067 6.31062C16.9945 6.12613 17.9558 6.22082 18.8295 6.5827C19.7032 6.94458 20.4499 7.55741 20.9753 8.34368C21.5006 9.12995 21.781 10.0544 21.781 11C21.781 12.2681 21.2773 13.4842 20.3806 14.3809C19.484 15.2775 18.2679 15.7812 16.9998 15.7812Z" fill="black"/>
</svg>
