<svg width="89" height="17" viewBox="0 0 89 17" fill="none" xmlns="http://www.w3.org/2000/svg">
<g clip-path="url(#clip0_45_3)">
<path d="M41.6545 14.3438H43.3934L45.8173 5.2594V14.3438H47.767V2.33752H45.0796L42.6557 11.1563L40.2317 2.33752H37.4916V14.3438H39.1778V5.2594L41.6545 14.3438ZM55.9347 8.39377C55.9347 6.26877 54.8808 5.4719 52.7203 5.4719C51.3503 5.4719 50.2964 5.8969 49.664 6.26877V7.96877C50.191 7.54377 51.403 7.11877 52.4568 7.11877C53.458 7.11877 53.8796 7.49065 53.8796 8.39377V8.8719H53.5634C50.4545 8.8719 49.0317 9.9344 49.0317 11.6875C49.0317 13.4406 50.0856 14.45 51.6664 14.45C52.8784 14.45 53.4054 14.0781 53.7742 13.6531H53.8796C53.8796 13.8657 53.985 14.1844 54.0377 14.3438H56.0401C55.9874 13.6531 55.9347 12.9094 55.9347 12.2188V8.39377ZM53.8796 12.2719C53.6161 12.6438 53.1419 12.9625 52.4042 12.9625C51.561 12.9625 51.1395 12.4313 51.1395 11.6875C51.1395 10.6781 51.8245 10.3063 53.6161 10.3063H53.9323V12.2719H53.8796ZM59.4652 5.63127H57.5682V16.8406H59.6233V13.3344C60.1503 14.1313 60.888 14.5031 61.7838 14.5031C63.7862 14.5031 65.1562 12.9094 65.1562 9.98752C65.1562 7.06565 63.8389 5.4719 61.8892 5.4719C60.9407 5.4719 60.1503 5.8969 59.5706 6.7469L59.4652 5.63127ZM61.2042 12.9094C60.1503 12.9094 59.5706 12.0063 59.5706 10.0406C59.5706 8.0219 60.1503 7.11877 61.3095 7.11877C62.4161 7.11877 62.9958 8.0219 62.9958 9.98752C62.9958 12.0063 62.4161 12.9094 61.2042 12.9094ZM71.5323 14.3438H73.8509L70.5838 9.66878L73.482 5.63127H71.4269L68.5287 9.66878V5.63127H66.4736V14.3438H68.5287V10.0938L71.5323 14.3438ZM80.7012 13.7594V12.0594C80.0688 12.4844 79.0149 12.8563 78.0137 12.8563C76.5383 12.8563 75.9586 12.1656 75.8533 10.6782H80.7539V9.56252C80.7539 6.5344 79.4365 5.41877 77.3814 5.41877C74.9048 5.41877 73.6928 7.33127 73.6928 9.98752C73.6928 13.0156 75.1682 14.5031 77.7503 14.5031C79.173 14.5031 80.1215 14.1844 80.7012 13.7594ZM77.3814 7.11877C78.3826 7.11877 78.6988 7.96877 78.6988 9.03127V9.19065H75.8533C75.906 7.8094 76.4329 7.11877 77.3814 7.11877ZM88.0784 7.27815V5.63127H81.2281V7.27815H83.6521V14.3438H85.7071V7.27815H88.0784Z" fill="black"/>
<path d="M25.3192 16.4688C29.6928 16.4688 33.2234 12.9094 33.2234 8.5C33.2234 4.09062 29.6928 0.53125 25.3192 0.53125C20.9455 0.53125 17.415 4.09062 17.415 8.5C17.3623 12.9094 20.9455 16.4688 25.3192 16.4688Z" fill="#FED42B"/>
<path d="M8.40419 16.4688C12.7696 16.4688 16.3084 12.901 16.3084 8.5C16.3084 4.09898 12.7696 0.53125 8.40419 0.53125C4.03883 0.53125 0.5 4.09898 0.5 8.5C0.5 12.901 4.03883 16.4688 8.40419 16.4688Z" fill="#FC3F1D"/>
<path d="M9.56348 4.99375H8.77306C7.403 4.99375 6.71797 5.68437 6.71797 6.74687C6.71797 7.91563 7.19222 8.5 8.19342 9.19062L8.98384 9.775L6.71797 13.3344H4.87366L7.03414 10.0938C5.76947 9.19063 5.08444 8.34062 5.08444 6.85312C5.08444 4.99375 6.34911 3.71875 8.77306 3.71875H11.197V13.2812H9.61617V4.99375H9.56348Z" fill="white"/>
<path d="M21.4198 4.88748L14.4641 14.0781L16.3084 16.2031L21.4725 9.29685L20.9455 13.0687L23.8438 14.0781L27.3743 8.39373C27.2162 9.45623 26.9527 11.9 29.2713 12.6437C32.9072 13.7593 36.0689 7.17185 37.5444 3.82498L35.4366 2.70935C33.803 6.16248 31.2737 9.98747 30.2725 9.72185C29.2713 9.45622 30.1671 6.2156 30.7467 4.14373V4.0906L27.5324 2.97498L23.6857 9.29685L24.2126 5.84373L21.4198 4.88748Z" fill="black"/>
</g>
<defs>
<clipPath id="clip0_45_3">
<rect width="88" height="17" fill="white" transform="translate(0.5)"/>
</clipPath>
</defs>
</svg>
