<svg width="300" height="32" viewBox="0 0 300 32" fill="none" xmlns="http://www.w3.org/2000/svg">
<path d="M16.2797 6.52C16.6904 6.72533 16.9237 7.04267 16.9797 7.472C17.0544 7.90133 16.9517 8.29333 16.6717 8.648C16.4664 8.928 16.1957 9.08667 15.8597 9.124C15.5424 9.16133 15.225 9.096 14.9077 8.928C14.3664 8.648 13.797 8.424 13.1997 8.256C12.6024 8.088 11.9677 8.004 11.2957 8.004C10.2317 8.004 9.27037 8.18133 8.4117 8.536C7.5717 8.872 6.8437 9.36667 6.2277 10.02C5.6117 10.6547 5.1357 11.4107 4.7997 12.288C4.48237 13.1653 4.3237 14.136 4.3237 15.2C4.3237 16.376 4.50104 17.4213 4.8557 18.336C5.21037 19.232 5.6957 19.9973 6.3117 20.632C6.94637 21.248 7.6837 21.7147 8.5237 22.032C9.38237 22.3307 10.3064 22.48 11.2957 22.48C11.9304 22.48 12.5464 22.4053 13.1437 22.256C13.7597 22.1067 14.3384 21.8827 14.8797 21.584C15.2157 21.416 15.5424 21.36 15.8597 21.416C16.1957 21.4533 16.4664 21.612 16.6717 21.892C16.989 22.284 17.101 22.6853 17.0077 23.096C16.933 23.488 16.6997 23.7867 16.3077 23.992C15.841 24.2533 15.3277 24.4773 14.7677 24.664C14.2077 24.8507 13.6384 25 13.0597 25.112C12.481 25.224 11.893 25.28 11.2957 25.28C9.9517 25.28 8.68237 25.056 7.4877 24.608C6.29304 24.16 5.22904 23.5067 4.2957 22.648C3.36237 21.7893 2.62504 20.7347 2.0837 19.484C1.56104 18.2333 1.2997 16.8053 1.2997 15.2C1.2997 13.7627 1.54237 12.4373 2.0277 11.224C2.5317 9.992 3.2317 8.93733 4.1277 8.06C5.04237 7.164 6.10637 6.47333 7.3197 5.988C8.53304 5.484 9.85837 5.232 11.2957 5.232C12.1917 5.232 13.0597 5.344 13.8997 5.568C14.7584 5.792 15.5517 6.10933 16.2797 6.52ZM22.8805 23.572C22.8805 23.9827 22.7405 24.328 22.4605 24.608C22.1992 24.8693 21.8725 25 21.4805 25C21.0885 25 20.7525 24.8693 20.4725 24.608C20.2112 24.328 20.0805 23.9827 20.0805 23.572V5.708C20.0805 5.29733 20.2205 4.96133 20.5005 4.7C20.7805 4.42 21.1165 4.28 21.5085 4.28C21.9192 4.28 22.2458 4.42 22.4885 4.7C22.7498 4.96133 22.8805 5.29733 22.8805 5.708V23.572ZM39.1159 10.048C39.5266 10.048 39.8626 10.188 40.1239 10.468C40.3852 10.7293 40.5159 11.0653 40.5159 11.476V23.572C40.5159 23.9827 40.3852 24.328 40.1239 24.608C39.8626 24.8693 39.5266 25 39.1159 25C38.7239 25 38.3879 24.8693 38.1079 24.608C37.8466 24.328 37.7159 23.9827 37.7159 23.572V21.556L38.3039 21.64C38.3039 21.976 38.1639 22.3493 37.8839 22.76C37.6226 23.1707 37.2586 23.572 36.7919 23.964C36.3252 24.3373 35.7746 24.6547 35.1399 24.916C34.5052 25.1587 33.8239 25.28 33.0959 25.28C31.8079 25.28 30.6506 24.9533 29.6239 24.3C28.5972 23.628 27.7852 22.7133 27.1879 21.556C26.5906 20.3987 26.2919 19.0827 26.2919 17.608C26.2919 16.096 26.5906 14.7707 27.1879 13.632C27.7852 12.4747 28.5879 11.5693 29.5959 10.916C30.6226 10.2627 31.7612 9.936 33.0119 9.936C33.8146 9.936 34.5519 10.0667 35.2239 10.328C35.9146 10.5893 36.5119 10.9253 37.0159 11.336C37.5199 11.7467 37.9026 12.1853 38.1639 12.652C38.4439 13.1 38.5839 13.5293 38.5839 13.94L37.7159 14.024V11.476C37.7159 11.084 37.8466 10.748 38.1079 10.468C38.3879 10.188 38.7239 10.048 39.1159 10.048ZM33.4039 22.704C34.2812 22.704 35.0559 22.48 35.7279 22.032C36.3999 21.584 36.9226 20.9773 37.2959 20.212C37.6692 19.428 37.8559 18.56 37.8559 17.608C37.8559 16.6373 37.6692 15.7693 37.2959 15.004C36.9226 14.2387 36.3999 13.632 35.7279 13.184C35.0559 12.736 34.2812 12.512 33.4039 12.512C32.5452 12.512 31.7799 12.736 31.1079 13.184C30.4546 13.632 29.9319 14.2387 29.5399 15.004C29.1666 15.7693 28.9799 16.6373 28.9799 17.608C28.9799 18.56 29.1666 19.428 29.5399 20.212C29.9319 20.9773 30.4546 21.584 31.1079 22.032C31.7799 22.48 32.5452 22.704 33.4039 22.704ZM55.1411 10.272C55.5331 10.272 55.8597 10.412 56.1211 10.692C56.4011 10.9533 56.5411 11.2893 56.5411 11.7V19.064C56.5411 21.0053 55.9997 22.5267 54.9171 23.628C53.8344 24.7107 52.3037 25.252 50.3251 25.252C48.3651 25.252 46.8437 24.7107 45.7611 23.628C44.6971 22.5267 44.1651 21.0053 44.1651 19.064V11.7C44.1651 11.2893 44.2957 10.9533 44.5571 10.692C44.8184 10.412 45.1544 10.272 45.5651 10.272C45.9571 10.272 46.2837 10.412 46.5451 10.692C46.8251 10.9533 46.9651 11.2893 46.9651 11.7V19.064C46.9651 20.2773 47.2451 21.1827 47.8051 21.78C48.3837 22.3773 49.2237 22.676 50.3251 22.676C51.4451 22.676 52.2944 22.3773 52.8731 21.78C53.4517 21.1827 53.7411 20.2773 53.7411 19.064V11.7C53.7411 11.2893 53.8717 10.9533 54.1331 10.692C54.3944 10.412 54.7304 10.272 55.1411 10.272ZM72.5026 4.28C72.9133 4.28 73.2493 4.41067 73.5106 4.672C73.7719 4.93333 73.9026 5.27867 73.9026 5.708V23.572C73.9026 23.9827 73.7719 24.328 73.5106 24.608C73.2493 24.8693 72.9133 25 72.5026 25C72.1106 25 71.7746 24.8693 71.4946 24.608C71.2333 24.328 71.1026 23.9827 71.1026 23.572V21.556L71.6906 21.584C71.6906 21.92 71.5506 22.3027 71.2706 22.732C71.0093 23.1427 70.6453 23.544 70.1786 23.936C69.7119 24.328 69.1613 24.6547 68.5266 24.916C67.8919 25.1587 67.2106 25.28 66.4826 25.28C65.1946 25.28 64.0373 24.9533 63.0106 24.3C61.9839 23.628 61.1719 22.7227 60.5746 21.584C59.9773 20.4267 59.6786 19.1013 59.6786 17.608C59.6786 16.1147 59.9773 14.7987 60.5746 13.66C61.1719 12.5027 61.9746 11.5973 62.9826 10.944C64.0093 10.272 65.1479 9.936 66.3986 9.936C67.1826 9.936 67.9106 10.0667 68.5826 10.328C69.2733 10.5893 69.8706 10.9253 70.3746 11.336C70.8786 11.7467 71.2706 12.1853 71.5506 12.652C71.8306 13.1 71.9706 13.5293 71.9706 13.94L71.1026 14.024V5.708C71.1026 5.29733 71.2333 4.96133 71.4946 4.7C71.7746 4.42 72.1106 4.28 72.5026 4.28ZM66.7906 22.704C67.6866 22.704 68.4613 22.48 69.1146 22.032C69.7866 21.584 70.3093 20.9773 70.6826 20.212C71.0559 19.4467 71.2426 18.5787 71.2426 17.608C71.2426 16.6373 71.0559 15.7693 70.6826 15.004C70.3093 14.2387 69.7866 13.632 69.1146 13.184C68.4426 12.736 67.6679 12.512 66.7906 12.512C65.9319 12.512 65.1666 12.736 64.4946 13.184C63.8413 13.632 63.3186 14.2387 62.9266 15.004C62.5533 15.7693 62.3666 16.6373 62.3666 17.608C62.3666 18.5787 62.5533 19.4467 62.9266 20.212C63.3186 20.9773 63.8413 21.584 64.4946 22.032C65.1666 22.48 65.9319 22.704 66.7906 22.704ZM80.4572 23.572C80.4572 23.9827 80.3266 24.328 80.0652 24.608C79.8039 24.8693 79.4679 25 79.0572 25C78.6652 25 78.3292 24.8693 78.0492 24.608C77.7879 24.328 77.6572 23.9827 77.6572 23.572V11.588C77.6572 11.1773 77.7879 10.8413 78.0492 10.58C78.3292 10.3 78.6652 10.16 79.0572 10.16C79.4679 10.16 79.8039 10.3 80.0652 10.58C80.3266 10.8413 80.4572 11.1773 80.4572 11.588V23.572ZM79.0292 8.312C78.4879 8.312 78.0959 8.21867 77.8532 8.032C77.6106 7.82667 77.4892 7.49067 77.4892 7.024V6.576C77.4892 6.10933 77.6199 5.78267 77.8812 5.596C78.1426 5.40933 78.5346 5.316 79.0572 5.316C79.6172 5.316 80.0186 5.41867 80.2612 5.624C80.5039 5.81067 80.6252 6.128 80.6252 6.576V7.024C80.6252 7.50933 80.4946 7.84533 80.2332 8.032C79.9906 8.21867 79.5892 8.312 79.0292 8.312ZM95.1997 10.272C95.5917 10.272 95.9183 10.412 96.1797 10.692C96.4597 10.9533 96.5997 11.2893 96.5997 11.7V19.064C96.5997 21.0053 96.0583 22.5267 94.9757 23.628C93.893 24.7107 92.3623 25.252 90.3837 25.252C88.4237 25.252 86.9023 24.7107 85.8197 23.628C84.7557 22.5267 84.2237 21.0053 84.2237 19.064V11.7C84.2237 11.2893 84.3543 10.9533 84.6157 10.692C84.877 10.412 85.213 10.272 85.6237 10.272C86.0157 10.272 86.3423 10.412 86.6037 10.692C86.8837 10.9533 87.0237 11.2893 87.0237 11.7V19.064C87.0237 20.2773 87.3037 21.1827 87.8637 21.78C88.4423 22.3773 89.2823 22.676 90.3837 22.676C91.5037 22.676 92.353 22.3773 92.9317 21.78C93.5103 21.1827 93.7997 20.2773 93.7997 19.064V11.7C93.7997 11.2893 93.9303 10.9533 94.1917 10.692C94.453 10.412 94.789 10.272 95.1997 10.272ZM99.6252 22.704C99.4572 22.4427 99.3825 22.144 99.4012 21.808C99.4199 21.4533 99.6159 21.1547 99.9892 20.912C100.251 20.744 100.521 20.6787 100.801 20.716C101.1 20.7347 101.38 20.8747 101.641 21.136C102.164 21.7147 102.743 22.172 103.377 22.508C104.031 22.844 104.815 23.012 105.729 23.012C106.103 22.9933 106.485 22.9373 106.877 22.844C107.269 22.732 107.605 22.5453 107.885 22.284C108.165 22.004 108.305 21.6027 108.305 21.08C108.305 20.6133 108.156 20.24 107.857 19.96C107.559 19.68 107.167 19.456 106.681 19.288C106.196 19.1013 105.673 18.9333 105.113 18.784C104.516 18.616 103.909 18.4293 103.293 18.224C102.696 18.0187 102.155 17.7573 101.669 17.44C101.184 17.104 100.783 16.6747 100.465 16.152C100.167 15.6293 100.017 14.9853 100.017 14.22C100.017 13.3427 100.26 12.5867 100.745 11.952C101.249 11.3173 101.893 10.8227 102.677 10.468C103.48 10.1133 104.348 9.936 105.281 9.936C105.823 9.936 106.392 10.0107 106.989 10.16C107.587 10.2907 108.165 10.5053 108.725 10.804C109.285 11.1027 109.771 11.4947 110.181 11.98C110.368 12.2227 110.471 12.512 110.489 12.848C110.527 13.184 110.377 13.4827 110.041 13.744C109.817 13.9307 109.547 14.0147 109.229 13.996C108.912 13.9773 108.651 13.8747 108.445 13.688C108.091 13.24 107.633 12.8947 107.073 12.652C106.513 12.3907 105.879 12.26 105.169 12.26C104.815 12.26 104.441 12.316 104.049 12.428C103.676 12.5213 103.359 12.6987 103.097 12.96C102.836 13.2213 102.705 13.604 102.705 14.108C102.705 14.5747 102.855 14.948 103.153 15.228C103.471 15.508 103.881 15.7413 104.385 15.928C104.889 16.1147 105.44 16.2827 106.037 16.432C106.616 16.5813 107.185 16.7587 107.745 16.964C108.324 17.1693 108.837 17.44 109.285 17.776C109.752 18.0933 110.125 18.5133 110.405 19.036C110.704 19.54 110.853 20.184 110.853 20.968C110.853 21.8827 110.583 22.6667 110.041 23.32C109.519 23.9547 108.847 24.44 108.025 24.776C107.223 25.112 106.373 25.28 105.477 25.28C104.413 25.28 103.349 25.0933 102.285 24.72C101.24 24.328 100.353 23.656 99.6252 22.704Z" fill="white"/>
<path d="M123.066 23V14.432H128.154V15.38H124.146V18.056H125.418C126.274 18.056 126.938 18.164 127.41 18.38C127.882 18.588 128.21 18.876 128.394 19.244C128.578 19.604 128.67 20.02 128.67 20.492C128.67 21.012 128.566 21.46 128.358 21.836C128.158 22.212 127.83 22.5 127.374 22.7C126.918 22.9 126.318 23 125.574 23H123.066ZM125.466 22.076C126.234 22.076 126.774 21.948 127.086 21.692C127.398 21.428 127.554 21.028 127.554 20.492C127.554 20.124 127.478 19.832 127.326 19.616C127.182 19.392 126.942 19.232 126.606 19.136C126.278 19.04 125.838 18.992 125.286 18.992H124.146V22.076H125.466ZM135.897 19.772C135.897 20.308 135.825 20.784 135.681 21.2C135.545 21.608 135.345 21.956 135.081 22.244C134.825 22.532 134.509 22.752 134.133 22.904C133.765 23.048 133.353 23.12 132.897 23.12C132.473 23.12 132.081 23.048 131.721 22.904C131.361 22.752 131.049 22.532 130.785 22.244C130.521 21.956 130.313 21.608 130.161 21.2C130.017 20.784 129.945 20.308 129.945 19.772C129.945 19.06 130.065 18.46 130.305 17.972C130.545 17.476 130.889 17.1 131.337 16.844C131.785 16.58 132.317 16.448 132.933 16.448C133.517 16.448 134.029 16.58 134.469 16.844C134.917 17.1 135.265 17.476 135.513 17.972C135.769 18.46 135.897 19.06 135.897 19.772ZM131.037 19.772C131.037 20.276 131.101 20.716 131.229 21.092C131.365 21.46 131.573 21.744 131.853 21.944C132.133 22.144 132.489 22.244 132.921 22.244C133.353 22.244 133.709 22.144 133.989 21.944C134.269 21.744 134.473 21.46 134.601 21.092C134.737 20.716 134.805 20.276 134.805 19.772C134.805 19.26 134.737 18.824 134.601 18.464C134.465 18.104 134.257 17.828 133.977 17.636C133.705 17.436 133.349 17.336 132.909 17.336C132.253 17.336 131.777 17.552 131.481 17.984C131.185 18.416 131.037 19.012 131.037 19.772ZM138.627 16.568V19.244H142.119V16.568H143.175V23H142.119V20.132H138.627V23H137.571V16.568H138.627ZM144.203 16.568H145.331L146.723 20.228C146.803 20.444 146.875 20.652 146.939 20.852C147.011 21.052 147.075 21.248 147.131 21.44C147.187 21.624 147.231 21.804 147.263 21.98H147.311C147.359 21.78 147.435 21.52 147.539 21.2C147.643 20.872 147.751 20.544 147.863 20.216L149.171 16.568H150.311L147.539 23.888C147.387 24.288 147.207 24.636 146.999 24.932C146.799 25.236 146.551 25.468 146.255 25.628C145.967 25.796 145.615 25.88 145.199 25.88C145.007 25.88 144.839 25.868 144.695 25.844C144.551 25.828 144.427 25.808 144.323 25.784V24.944C144.411 24.96 144.515 24.976 144.635 24.992C144.763 25.008 144.895 25.016 145.031 25.016C145.279 25.016 145.491 24.968 145.667 24.872C145.851 24.784 146.007 24.652 146.135 24.476C146.263 24.308 146.371 24.108 146.459 23.876L146.795 23.024L144.203 16.568ZM153.909 23.12C153.341 23.12 152.833 23.004 152.385 22.772C151.945 22.54 151.597 22.18 151.341 21.692C151.093 21.204 150.969 20.58 150.969 19.82C150.969 19.028 151.101 18.384 151.365 17.888C151.629 17.392 151.985 17.028 152.433 16.796C152.889 16.564 153.405 16.448 153.981 16.448C154.309 16.448 154.625 16.484 154.929 16.556C155.233 16.62 155.481 16.7 155.673 16.796L155.349 17.672C155.157 17.6 154.933 17.532 154.677 17.468C154.421 17.404 154.181 17.372 153.957 17.372C153.525 17.372 153.169 17.464 152.889 17.648C152.609 17.832 152.401 18.104 152.265 18.464C152.129 18.824 152.061 19.272 152.061 19.808C152.061 20.32 152.129 20.756 152.265 21.116C152.401 21.476 152.605 21.748 152.877 21.932C153.149 22.116 153.489 22.208 153.897 22.208C154.249 22.208 154.557 22.172 154.821 22.1C155.093 22.028 155.341 21.94 155.565 21.836V22.772C155.349 22.884 155.109 22.968 154.845 23.024C154.589 23.088 154.277 23.12 153.909 23.12ZM158.15 16.568V19.244H161.642V16.568H162.698V23H161.642V20.132H158.15V23H157.094V16.568H158.15ZM167.171 16.46C167.955 16.46 168.535 16.632 168.911 16.976C169.287 17.32 169.475 17.868 169.475 18.62V23H168.707L168.503 22.088H168.455C168.271 22.32 168.079 22.516 167.879 22.676C167.687 22.828 167.463 22.94 167.207 23.012C166.959 23.084 166.655 23.12 166.295 23.12C165.911 23.12 165.563 23.052 165.251 22.916C164.947 22.78 164.707 22.572 164.531 22.292C164.355 22.004 164.267 21.644 164.267 21.212C164.267 20.572 164.519 20.08 165.023 19.736C165.527 19.384 166.303 19.192 167.351 19.16L168.443 19.124V18.74C168.443 18.204 168.327 17.832 168.095 17.624C167.863 17.416 167.535 17.312 167.111 17.312C166.775 17.312 166.455 17.364 166.151 17.468C165.847 17.564 165.563 17.676 165.299 17.804L164.975 17.012C165.255 16.86 165.587 16.732 165.971 16.628C166.355 16.516 166.755 16.46 167.171 16.46ZM167.483 19.892C166.683 19.924 166.127 20.052 165.815 20.276C165.511 20.5 165.359 20.816 165.359 21.224C165.359 21.584 165.467 21.848 165.683 22.016C165.907 22.184 166.191 22.268 166.535 22.268C167.079 22.268 167.531 22.12 167.891 21.824C168.251 21.52 168.431 21.056 168.431 20.432V19.856L167.483 19.892ZM171.857 23H170.633L172.469 20.3C172.221 20.236 171.981 20.136 171.749 20C171.517 19.856 171.329 19.66 171.185 19.412C171.041 19.156 170.969 18.84 170.969 18.464C170.969 17.848 171.177 17.38 171.593 17.06C172.009 16.732 172.561 16.568 173.249 16.568H176.129V23H175.073V20.444H173.513L171.857 23ZM171.989 18.476C171.989 18.844 172.125 19.12 172.397 19.304C172.677 19.48 173.065 19.568 173.561 19.568H175.073V17.444H173.357C172.869 17.444 172.517 17.54 172.301 17.732C172.093 17.924 171.989 18.172 171.989 18.476ZM184.026 23.12C183.458 23.12 182.95 23.004 182.502 22.772C182.062 22.54 181.714 22.18 181.458 21.692C181.21 21.204 181.086 20.58 181.086 19.82C181.086 19.028 181.218 18.384 181.482 17.888C181.746 17.392 182.102 17.028 182.55 16.796C183.006 16.564 183.522 16.448 184.098 16.448C184.426 16.448 184.742 16.484 185.046 16.556C185.35 16.62 185.598 16.7 185.79 16.796L185.466 17.672C185.274 17.6 185.05 17.532 184.794 17.468C184.538 17.404 184.298 17.372 184.074 17.372C183.642 17.372 183.286 17.464 183.006 17.648C182.726 17.832 182.518 18.104 182.382 18.464C182.246 18.824 182.178 19.272 182.178 19.808C182.178 20.32 182.246 20.756 182.382 21.116C182.518 21.476 182.722 21.748 182.994 21.932C183.266 22.116 183.606 22.208 184.014 22.208C184.366 22.208 184.674 22.172 184.938 22.1C185.21 22.028 185.458 21.94 185.682 21.836V22.772C185.466 22.884 185.226 22.968 184.962 23.024C184.706 23.088 184.394 23.12 184.026 23.12ZM188.207 20.492C188.207 20.564 188.203 20.668 188.195 20.804C188.195 20.932 188.191 21.072 188.183 21.224C188.175 21.368 188.167 21.508 188.159 21.644C188.151 21.772 188.143 21.876 188.135 21.956L191.579 16.568H192.875V23H191.891V19.208C191.891 19.08 191.891 18.912 191.891 18.704C191.899 18.496 191.907 18.292 191.915 18.092C191.923 17.884 191.931 17.728 191.939 17.624L188.519 23H187.211V16.568H188.207V20.492ZM197.502 23.12C196.934 23.12 196.426 23.004 195.978 22.772C195.538 22.54 195.19 22.18 194.934 21.692C194.686 21.204 194.562 20.58 194.562 19.82C194.562 19.028 194.694 18.384 194.958 17.888C195.222 17.392 195.578 17.028 196.026 16.796C196.482 16.564 196.998 16.448 197.574 16.448C197.902 16.448 198.218 16.484 198.522 16.556C198.826 16.62 199.074 16.7 199.266 16.796L198.942 17.672C198.75 17.6 198.526 17.532 198.27 17.468C198.014 17.404 197.774 17.372 197.55 17.372C197.118 17.372 196.762 17.464 196.482 17.648C196.202 17.832 195.994 18.104 195.858 18.464C195.722 18.824 195.654 19.272 195.654 19.808C195.654 20.32 195.722 20.756 195.858 21.116C195.994 21.476 196.198 21.748 196.47 21.932C196.742 22.116 197.082 22.208 197.49 22.208C197.842 22.208 198.15 22.172 198.414 22.1C198.686 22.028 198.934 21.94 199.158 21.836V22.772C198.942 22.884 198.702 22.968 198.438 23.024C198.182 23.088 197.87 23.12 197.502 23.12ZM205.128 17.456H203.028V23H201.984V17.456H199.908V16.568H205.128V17.456ZM208.762 16.448C209.314 16.448 209.786 16.568 210.178 16.808C210.578 17.048 210.882 17.388 211.09 17.828C211.306 18.26 211.414 18.768 211.414 19.352V19.988H207.01C207.026 20.716 207.21 21.272 207.562 21.656C207.922 22.032 208.422 22.22 209.062 22.22C209.47 22.22 209.83 22.184 210.142 22.112C210.462 22.032 210.79 21.92 211.126 21.776V22.7C210.798 22.844 210.474 22.948 210.154 23.012C209.834 23.084 209.454 23.12 209.014 23.12C208.406 23.12 207.866 22.996 207.394 22.748C206.93 22.5 206.566 22.132 206.302 21.644C206.046 21.148 205.918 20.544 205.918 19.832C205.918 19.128 206.034 18.524 206.266 18.02C206.506 17.516 206.838 17.128 207.262 16.856C207.694 16.584 208.194 16.448 208.762 16.448ZM208.75 17.312C208.246 17.312 207.846 17.476 207.55 17.804C207.262 18.124 207.09 18.572 207.034 19.148H210.31C210.31 18.78 210.254 18.46 210.142 18.188C210.03 17.916 209.858 17.704 209.626 17.552C209.402 17.392 209.11 17.312 208.75 17.312ZM219.951 16.568V23H219.003V18.896C219.003 18.728 219.007 18.552 219.015 18.368C219.031 18.184 219.047 18.004 219.063 17.828H219.027L216.927 23H216.039L213.999 17.828H213.963C213.979 18.004 213.987 18.184 213.987 18.368C213.995 18.552 213.999 18.74 213.999 18.932V23H213.051V16.568H214.455L216.483 21.74L218.547 16.568H219.951ZM224.44 16.46C225.224 16.46 225.804 16.632 226.18 16.976C226.556 17.32 226.744 17.868 226.744 18.62V23H225.976L225.772 22.088H225.724C225.54 22.32 225.348 22.516 225.148 22.676C224.956 22.828 224.732 22.94 224.476 23.012C224.228 23.084 223.924 23.12 223.564 23.12C223.18 23.12 222.832 23.052 222.52 22.916C222.216 22.78 221.976 22.572 221.8 22.292C221.624 22.004 221.536 21.644 221.536 21.212C221.536 20.572 221.788 20.08 222.292 19.736C222.796 19.384 223.572 19.192 224.62 19.16L225.712 19.124V18.74C225.712 18.204 225.596 17.832 225.364 17.624C225.132 17.416 224.804 17.312 224.38 17.312C224.044 17.312 223.724 17.364 223.42 17.468C223.116 17.564 222.832 17.676 222.568 17.804L222.244 17.012C222.524 16.86 222.856 16.732 223.24 16.628C223.624 16.516 224.024 16.46 224.44 16.46ZM224.752 19.892C223.952 19.924 223.396 20.052 223.084 20.276C222.78 20.5 222.628 20.816 222.628 21.224C222.628 21.584 222.736 21.848 222.952 22.016C223.176 22.184 223.46 22.268 223.804 22.268C224.348 22.268 224.8 22.12 225.16 21.824C225.52 21.52 225.7 21.056 225.7 20.432V19.856L224.752 19.892ZM237.448 16.568V23H236.392V17.468H233.068V23H232.012V16.568H237.448ZM245.092 19.772C245.092 20.308 245.02 20.784 244.876 21.2C244.74 21.608 244.54 21.956 244.276 22.244C244.02 22.532 243.704 22.752 243.328 22.904C242.96 23.048 242.548 23.12 242.092 23.12C241.668 23.12 241.276 23.048 240.916 22.904C240.556 22.752 240.244 22.532 239.98 22.244C239.716 21.956 239.508 21.608 239.356 21.2C239.212 20.784 239.14 20.308 239.14 19.772C239.14 19.06 239.26 18.46 239.5 17.972C239.74 17.476 240.084 17.1 240.532 16.844C240.98 16.58 241.512 16.448 242.128 16.448C242.712 16.448 243.224 16.58 243.664 16.844C244.112 17.1 244.46 17.476 244.708 17.972C244.964 18.46 245.092 19.06 245.092 19.772ZM240.232 19.772C240.232 20.276 240.296 20.716 240.424 21.092C240.56 21.46 240.768 21.744 241.048 21.944C241.328 22.144 241.684 22.244 242.116 22.244C242.548 22.244 242.904 22.144 243.184 21.944C243.464 21.744 243.668 21.46 243.796 21.092C243.932 20.716 244 20.276 244 19.772C244 19.26 243.932 18.824 243.796 18.464C243.66 18.104 243.452 17.828 243.172 17.636C242.9 17.436 242.544 17.336 242.104 17.336C241.448 17.336 240.972 17.552 240.676 17.984C240.38 18.416 240.232 19.012 240.232 19.772ZM252.358 19.772C252.358 20.308 252.286 20.784 252.142 21.2C252.006 21.608 251.806 21.956 251.542 22.244C251.286 22.532 250.97 22.752 250.594 22.904C250.226 23.048 249.814 23.12 249.358 23.12C248.934 23.12 248.542 23.048 248.182 22.904C247.822 22.752 247.51 22.532 247.246 22.244C246.982 21.956 246.774 21.608 246.622 21.2C246.478 20.784 246.406 20.308 246.406 19.772C246.406 19.06 246.526 18.46 246.766 17.972C247.006 17.476 247.35 17.1 247.798 16.844C248.246 16.58 248.778 16.448 249.394 16.448C249.978 16.448 250.49 16.58 250.93 16.844C251.378 17.1 251.726 17.476 251.974 17.972C252.23 18.46 252.358 19.06 252.358 19.772ZM247.498 19.772C247.498 20.276 247.562 20.716 247.69 21.092C247.826 21.46 248.034 21.744 248.314 21.944C248.594 22.144 248.95 22.244 249.382 22.244C249.814 22.244 250.17 22.144 250.45 21.944C250.73 21.744 250.934 21.46 251.062 21.092C251.198 20.716 251.266 20.276 251.266 19.772C251.266 19.26 251.198 18.824 251.062 18.464C250.926 18.104 250.718 17.828 250.438 17.636C250.166 17.436 249.81 17.336 249.37 17.336C248.714 17.336 248.238 17.552 247.942 17.984C247.646 18.416 247.498 19.012 247.498 19.772ZM262.744 16.568V22.124H263.68V25.22H262.624V23H254.032V16.568H255.088V22.112H257.86V16.568H258.916V22.112H261.7V16.568H262.744ZM267.967 16.448C268.759 16.448 269.395 16.724 269.875 17.276C270.363 17.828 270.607 18.66 270.607 19.772C270.607 20.5 270.495 21.116 270.271 21.62C270.055 22.116 269.747 22.492 269.347 22.748C268.955 22.996 268.491 23.12 267.955 23.12C267.627 23.12 267.335 23.076 267.079 22.988C266.823 22.9 266.603 22.788 266.419 22.652C266.243 22.508 266.091 22.352 265.963 22.184H265.891C265.907 22.32 265.923 22.492 265.939 22.7C265.955 22.908 265.963 23.088 265.963 23.24V25.88H264.907V16.568H265.771L265.915 17.444H265.963C266.091 17.26 266.243 17.092 266.419 16.94C266.603 16.788 266.819 16.668 267.067 16.58C267.323 16.492 267.623 16.448 267.967 16.448ZM267.775 17.336C267.343 17.336 266.995 17.42 266.731 17.588C266.467 17.748 266.275 17.992 266.155 18.32C266.035 18.648 265.971 19.064 265.963 19.568V19.772C265.963 20.3 266.019 20.748 266.131 21.116C266.243 21.484 266.431 21.764 266.695 21.956C266.967 22.148 267.335 22.244 267.799 22.244C268.191 22.244 268.511 22.136 268.759 21.92C269.015 21.704 269.203 21.412 269.323 21.044C269.451 20.668 269.515 20.24 269.515 19.76C269.515 19.024 269.371 18.436 269.083 17.996C268.803 17.556 268.367 17.336 267.775 17.336ZM274.774 16.448C275.326 16.448 275.798 16.568 276.19 16.808C276.59 17.048 276.894 17.388 277.102 17.828C277.318 18.26 277.426 18.768 277.426 19.352V19.988H273.022C273.038 20.716 273.222 21.272 273.574 21.656C273.934 22.032 274.434 22.22 275.074 22.22C275.482 22.22 275.842 22.184 276.154 22.112C276.474 22.032 276.802 21.92 277.138 21.776V22.7C276.81 22.844 276.486 22.948 276.166 23.012C275.846 23.084 275.466 23.12 275.026 23.12C274.418 23.12 273.878 22.996 273.406 22.748C272.942 22.5 272.578 22.132 272.314 21.644C272.058 21.148 271.93 20.544 271.93 19.832C271.93 19.128 272.046 18.524 272.278 18.02C272.518 17.516 272.85 17.128 273.274 16.856C273.706 16.584 274.206 16.448 274.774 16.448ZM274.762 17.312C274.258 17.312 273.858 17.476 273.562 17.804C273.274 18.124 273.102 18.572 273.046 19.148H276.322C276.322 18.78 276.266 18.46 276.154 18.188C276.042 17.916 275.87 17.704 275.638 17.552C275.414 17.392 275.122 17.312 274.762 17.312ZM280.119 16.568V19.244H283.611V16.568H284.667V23H283.611V20.132H280.119V23H279.063V16.568H280.119ZM287.7 20.492C287.7 20.564 287.696 20.668 287.688 20.804C287.688 20.932 287.684 21.072 287.676 21.224C287.668 21.368 287.66 21.508 287.652 21.644C287.644 21.772 287.636 21.876 287.628 21.956L291.072 16.568H292.368V23H291.384V19.208C291.384 19.08 291.384 18.912 291.384 18.704C291.392 18.496 291.4 18.292 291.408 18.092C291.416 17.884 291.424 17.728 291.432 17.624L288.012 23H286.704V16.568H287.7V20.492ZM294.811 23H293.587L295.423 20.3C295.175 20.236 294.935 20.136 294.703 20C294.471 19.856 294.283 19.66 294.139 19.412C293.995 19.156 293.923 18.84 293.923 18.464C293.923 17.848 294.131 17.38 294.547 17.06C294.963 16.732 295.515 16.568 296.203 16.568H299.083V23H298.027V20.444H296.467L294.811 23ZM294.943 18.476C294.943 18.844 295.079 19.12 295.351 19.304C295.631 19.48 296.019 19.568 296.515 19.568H298.027V17.444H296.311C295.823 17.444 295.471 17.54 295.255 17.732C295.047 17.924 294.943 18.172 294.943 18.476Z" fill="white"/>
</svg>
