<svg width="264" height="57" viewBox="0 0 264 57" fill="none" xmlns="http://www.w3.org/2000/svg">
<g filter="url(#filter0_d_71_886)">
<path d="M38.9533 5.22667C39.91 5.7057 40.456 6.4463 40.5867 7.448C40.7593 8.4497 40.5213 9.36437 39.868 10.192C39.3873 10.8453 38.7573 11.2156 37.9733 11.3027C37.2313 11.3897 36.4917 11.2373 35.752 10.8453C34.4873 10.192 33.1597 9.66933 31.7667 9.27733C30.3713 8.88533 28.892 8.68933 27.324 8.68933C24.8413 8.68933 22.5967 9.10303 20.5947 9.93066C18.6347 10.7147 16.936 11.869 15.4987 13.3933C14.0613 14.8743 12.9507 16.6383 12.1667 18.6853C11.4247 20.7324 11.056 22.9973 11.056 25.48C11.056 28.224 11.469 30.663 12.2973 32.7973C13.1233 34.888 14.2573 36.6737 15.6947 38.1547C17.174 39.592 18.896 40.681 20.856 41.4213C22.858 42.1183 25.014 42.4667 27.324 42.4667C28.8033 42.4667 30.2407 42.2924 31.636 41.944C33.0733 41.5956 34.422 41.073 35.6867 40.376C36.4707 39.984 37.2313 39.8533 37.9733 39.984C38.7573 40.071 39.3873 40.4413 39.868 41.0947C40.6077 42.0093 40.869 42.9457 40.652 43.904C40.477 44.8187 39.9333 45.5156 39.0187 45.9947C37.929 46.6044 36.732 47.127 35.4253 47.5627C34.1187 47.9983 32.7887 48.3467 31.44 48.608C30.089 48.8693 28.717 49 27.324 49C24.188 49 21.2247 48.4773 18.4387 47.432C15.6503 46.3867 13.1677 44.8623 10.9907 42.8587C8.81134 40.855 7.09166 38.3943 5.82933 35.476C4.60899 32.5577 4 29.2257 4 25.48C4 22.1263 4.56466 19.0337 5.69866 16.2027C6.87466 13.328 8.50801 10.867 10.5987 8.82C12.7313 6.72933 15.214 5.1177 18.0467 3.98533C20.877 2.80933 23.9687 2.22133 27.324 2.22133C29.4147 2.22133 31.44 2.48267 33.4 3.00533C35.402 3.528 37.2547 4.26837 38.9533 5.22667ZM54.3533 45.0147C54.3533 45.973 54.0267 46.7787 53.3734 47.432C52.7644 48.0417 52.0013 48.3467 51.0867 48.3467C50.172 48.3467 49.388 48.0417 48.7347 47.432C48.1257 46.7787 47.82 45.973 47.82 45.0147V3.332C47.82 2.3737 48.1467 1.5897 48.8 0.98C49.4533 0.326667 50.2373 0 51.152 0C52.111 0 52.874 0.326667 53.4387 0.98C54.05 1.5897 54.3533 2.3737 54.3533 3.332V45.0147ZM92.2373 13.4587C93.1963 13.4587 93.9803 13.7853 94.5893 14.4387C95.1983 15.0484 95.504 15.8324 95.504 16.7907V45.0147C95.504 45.973 95.1983 46.7787 94.5893 47.432C93.9803 48.0417 93.1963 48.3467 92.2373 48.3467C91.3227 48.3467 90.5387 48.0417 89.8853 47.432C89.2763 46.7787 88.9707 45.973 88.9707 45.0147V40.3107L90.3427 40.5067C90.3427 41.2907 90.016 42.1617 89.3627 43.12C88.7537 44.0783 87.9044 45.0147 86.8147 45.9293C85.725 46.8004 84.4417 47.541 82.96 48.1507C81.4783 48.717 79.8893 49 78.1907 49C75.1853 49 72.4857 48.2377 70.0893 46.7133C67.693 45.1453 65.7983 43.011 64.4053 40.3107C63.0123 37.6103 62.3147 34.5396 62.3147 31.0987C62.3147 27.5707 63.0123 24.4783 64.4053 21.8213C65.7983 19.121 67.672 17.0084 70.024 15.484C72.4203 13.9596 75.0757 13.1973 77.9947 13.1973C79.8683 13.1973 81.588 13.5023 83.156 14.112C84.7683 14.7217 86.1614 15.5057 87.3374 16.464C88.5134 17.4223 89.407 18.4457 90.016 19.5347C90.6693 20.58 90.996 21.5817 90.996 22.54L88.9707 22.736V16.7907C88.9707 15.876 89.2763 15.092 89.8853 14.4387C90.5387 13.7853 91.3227 13.4587 92.2373 13.4587ZM78.9094 42.9893C80.9557 42.9893 82.764 42.4667 84.332 41.4213C85.9 40.376 87.1204 38.9604 87.9907 37.1747C88.861 35.3453 89.2973 33.32 89.2973 31.0987C89.2973 28.8337 88.861 26.8084 87.9907 25.0227C87.1204 23.237 85.9 21.8213 84.332 20.776C82.764 19.7307 80.9557 19.208 78.9094 19.208C76.905 19.208 75.12 19.7307 73.552 20.776C72.0283 21.8213 70.808 23.237 69.8933 25.0227C69.023 26.8084 68.5867 28.8337 68.5867 31.0987C68.5867 33.32 69.023 35.3453 69.8933 37.1747C70.808 38.9604 72.0283 40.376 73.552 41.4213C75.12 42.4667 76.905 42.9893 78.9094 42.9893ZM129.629 13.9813C130.544 13.9813 131.307 14.308 131.916 14.9613C132.569 15.571 132.896 16.355 132.896 17.3133V34.496C132.896 39.0257 131.633 42.5756 129.106 45.1453C126.579 47.6716 123.009 48.9347 118.392 48.9347C113.818 48.9347 110.269 47.6716 107.742 45.1453C105.26 42.5756 104.018 39.0257 104.018 34.496V17.3133C104.018 16.355 104.324 15.571 104.933 14.9613C105.542 14.308 106.326 13.9813 107.285 13.9813C108.2 13.9813 108.963 14.308 109.572 14.9613C110.225 15.571 110.552 16.355 110.552 17.3133V34.496C110.552 37.327 111.205 39.4396 112.512 40.8333C113.863 42.227 115.823 42.924 118.392 42.924C121.005 42.924 122.986 42.227 124.337 40.8333C125.688 39.4396 126.362 37.327 126.362 34.496V17.3133C126.362 16.355 126.668 15.571 127.277 14.9613C127.886 14.308 128.67 13.9813 129.629 13.9813ZM170.14 0C171.097 0 171.881 0.304967 172.492 0.914667C173.101 1.52437 173.407 2.3303 173.407 3.332V45.0147C173.407 45.973 173.101 46.7787 172.492 47.432C171.881 48.0417 171.097 48.3467 170.14 48.3467C169.226 48.3467 168.442 48.0417 167.788 47.432C167.177 46.7787 166.874 45.973 166.874 45.0147V40.3107L168.246 40.376C168.246 41.16 167.919 42.053 167.266 43.0547C166.654 44.013 165.805 44.9493 164.718 45.864C163.628 46.7787 162.342 47.541 160.863 48.1507C159.381 48.717 157.792 49 156.094 49C153.088 49 150.386 48.2377 147.992 46.7133C145.596 45.1453 143.701 43.033 142.308 40.376C140.913 37.6756 140.218 34.583 140.218 31.0987C140.218 27.6143 140.913 24.5436 142.308 21.8867C143.701 19.1863 145.575 17.0737 147.927 15.5493C150.321 13.9813 152.979 13.1973 155.898 13.1973C157.727 13.1973 159.426 13.5023 160.994 14.112C162.604 14.7217 163.999 15.5057 165.175 16.464C166.351 17.4223 167.266 18.4457 167.919 19.5347C168.572 20.58 168.899 21.5817 168.899 22.54L166.874 22.736V3.332C166.874 2.3737 167.177 1.5897 167.788 0.98C168.442 0.326667 169.226 0 170.14 0ZM156.812 42.9893C158.903 42.9893 160.709 42.4667 162.235 41.4213C163.803 40.376 165.021 38.9604 165.894 37.1747C166.764 35.389 167.2 33.3636 167.2 31.0987C167.2 28.8337 166.764 26.8084 165.894 25.0227C165.021 23.237 163.803 21.8213 162.235 20.776C160.667 19.7307 158.859 19.208 156.812 19.208C154.808 19.208 153.023 19.7307 151.455 20.776C149.929 21.8213 148.711 23.237 147.796 25.0227C146.924 26.8084 146.49 28.8337 146.49 31.0987C146.49 33.3636 146.924 35.389 147.796 37.1747C148.711 38.9604 149.929 40.376 151.455 41.4213C153.023 42.4667 154.808 42.9893 156.812 42.9893ZM188.7 45.0147C188.7 45.973 188.396 46.7787 187.785 47.432C187.176 48.0417 186.392 48.3467 185.433 48.3467C184.518 48.3467 183.734 48.0417 183.081 47.432C182.472 46.7787 182.166 45.973 182.166 45.0147V17.052C182.166 16.0937 182.472 15.3097 183.081 14.7C183.734 14.0467 184.518 13.72 185.433 13.72C186.392 13.72 187.176 14.0467 187.785 14.7C188.396 15.3097 188.7 16.0937 188.7 17.052V45.0147ZM185.368 9.408C184.105 9.408 183.191 9.1903 182.624 8.75466C182.059 8.27563 181.774 7.49163 181.774 6.40267V5.35733C181.774 4.26837 182.08 3.5063 182.689 3.07067C183.3 2.63503 184.215 2.41733 185.433 2.41733C186.74 2.41733 187.678 2.65697 188.242 3.136C188.809 3.57163 189.092 4.312 189.092 5.35733V6.40267C189.092 7.53503 188.788 8.31903 188.177 8.75466C187.612 9.1903 186.674 9.408 185.368 9.408ZM223.1 13.9813C224.015 13.9813 224.775 14.308 225.387 14.9613C226.04 15.571 226.367 16.355 226.367 17.3133V34.496C226.367 39.0257 225.102 42.5756 222.577 45.1453C220.05 47.6716 216.478 48.9347 211.863 48.9347C207.289 48.9347 203.738 47.6716 201.213 45.1453C198.731 42.5756 197.489 39.0257 197.489 34.496V17.3133C197.489 16.355 197.793 15.571 198.404 14.9613C199.013 14.308 199.797 13.9813 200.756 13.9813C201.671 13.9813 202.431 14.308 203.043 14.9613C203.696 15.571 204.023 16.355 204.023 17.3133V34.496C204.023 37.327 204.676 39.4396 205.983 40.8333C207.331 42.227 209.291 42.924 211.863 42.924C214.476 42.924 216.457 42.227 217.808 40.8333C219.157 39.4396 219.833 37.327 219.833 34.496V17.3133C219.833 16.355 220.137 15.571 220.748 14.9613C221.357 14.308 222.141 13.9813 223.1 13.9813ZM233.425 42.9893C233.033 42.3796 232.86 41.6827 232.902 40.8987C232.947 40.071 233.404 39.3743 234.274 38.808C234.886 38.416 235.516 38.2636 236.169 38.3507C236.867 38.3943 237.52 38.721 238.129 39.3307C239.349 40.681 240.7 41.748 242.18 42.532C243.706 43.316 245.535 43.708 247.668 43.708C248.54 43.6644 249.432 43.5337 250.346 43.316C251.261 43.0547 252.045 42.619 252.698 42.0093C253.352 41.356 253.678 40.4196 253.678 39.2C253.678 38.111 253.331 37.24 252.633 36.5867C251.938 35.9333 251.023 35.4107 249.889 35.0187C248.757 34.583 247.537 34.191 246.23 33.8427C244.837 33.4507 243.421 33.015 241.984 32.536C240.591 32.057 239.328 31.447 238.194 30.7067C237.063 29.9227 236.127 28.921 235.385 27.7013C234.69 26.4817 234.34 24.979 234.34 23.1933C234.34 21.1463 234.907 19.3823 236.038 17.9013C237.214 16.4204 238.717 15.2663 240.546 14.4387C242.42 13.611 244.445 13.1973 246.622 13.1973C247.887 13.1973 249.215 13.3716 250.608 13.72C252.003 14.025 253.352 14.5257 254.658 15.2227C255.965 15.9196 257.099 16.8343 258.056 17.9667C258.492 18.533 258.732 19.208 258.774 19.992C258.863 20.776 258.513 21.473 257.729 22.0827C257.206 22.5183 256.576 22.7143 255.834 22.6707C255.095 22.627 254.486 22.3876 254.005 21.952C253.179 20.9067 252.11 20.101 250.804 19.5347C249.497 18.925 248.018 18.62 246.361 18.62C245.535 18.62 244.662 18.7507 243.748 19.012C242.877 19.2297 242.138 19.6436 241.526 20.2533C240.917 20.863 240.612 21.756 240.612 22.932C240.612 24.021 240.962 24.892 241.657 25.5453C242.399 26.1987 243.356 26.743 244.532 27.1787C245.708 27.6143 246.993 28.0063 248.386 28.3547C249.737 28.703 251.065 29.117 252.372 29.596C253.723 30.075 254.92 30.7067 255.965 31.4907C257.055 32.231 257.925 33.211 258.578 34.4307C259.276 35.6067 259.624 37.1093 259.624 38.9387C259.624 41.073 258.994 42.9023 257.729 44.4267C256.511 45.9076 254.943 47.04 253.025 47.824C251.154 48.608 249.17 49 247.08 49C244.597 49 242.114 48.5644 239.632 47.6933C237.193 46.7787 235.124 45.2107 233.425 42.9893Z" fill="#B4F0FF" stroke="black"/>
</g>
<defs>
<filter id="filter0_d_71_886" x="0" y="0" width="263.624" height="57" filterUnits="userSpaceOnUse" color-interpolation-filters="sRGB">
<feFlood flood-opacity="0" result="BackgroundImageFix"/>
<feColorMatrix in="SourceAlpha" type="matrix" values="0 0 0 0 0 0 0 0 0 0 0 0 0 0 0 0 0 0 127 0" result="hardAlpha"/>
<feOffset dy="4"/>
<feGaussianBlur stdDeviation="2"/>
<feComposite in2="hardAlpha" operator="out"/>
<feColorMatrix type="matrix" values="0 0 0 0 0 0 0 0 0 0 0 0 0 0 0 0 0 0 0.25 0"/>
<feBlend mode="normal" in2="BackgroundImageFix" result="effect1_dropShadow_71_886"/>
<feBlend mode="normal" in="SourceGraphic" in2="effect1_dropShadow_71_886" result="shape"/>
</filter>
</defs>
</svg>
