<svg width="20" height="20" viewBox="0 0 20 20" fill="none" xmlns="http://www.w3.org/2000/svg">
<path d="M1 8.735C1 8.156 1.2509 7.6054 1.6879 7.2256L8.6879 1.1406C9.4404 0.486499 10.5596 0.486499 11.3121 1.1406L18.3121 7.2256C18.7491 7.6054 19 8.156 19 8.735V17C19 18.1046 18.1046 19 17 19H14.25C13.1454 19 12.25 18.1046 12.25 17V14.2941C12.25 13.1895 11.3546 12.2941 10.25 12.2941H9.75C8.6454 12.2941 7.75 13.1895 7.75 14.2941V17C7.75 18.1046 6.8546 19 5.75 19H3C1.8954 19 1 18.1046 1 17V8.735Z" stroke="#000" stroke-linejoin="round"/>
</svg>
