<svg width="17" height="14" viewBox="0 0 17 14" fill="none" xmlns="http://www.w3.org/2000/svg">
<path d="M2.87435 0.333252H14.1243C15.5685 0.333252 16.7487 1.46363 16.8284 2.8879L16.8327 3.04159V10.9582C16.8327 12.4024 15.7023 13.5826 14.278 13.6623L14.1243 13.6665H2.87435C1.43016 13.6665 0.249977 12.5362 0.170303 11.1119L0.166016 10.9582V3.04159C0.166016 1.59739 1.29639 0.417214 2.72066 0.337539L2.87435 0.333252H14.1243H2.87435ZM15.5827 4.81075L8.79044 8.38633C8.63426 8.46853 8.45196 8.48027 8.28832 8.42155L8.20826 8.38633L1.41602 4.81159V10.9582C1.41602 11.7234 2.00527 12.3509 2.75474 12.4117L2.87435 12.4165H14.1243C14.8895 12.4165 15.517 11.8273 15.5778 11.0778L15.5827 10.9582V4.81075ZM14.1243 1.58325H2.87435C2.1092 1.58325 1.48169 2.17251 1.42085 2.92198L1.41602 3.04159V3.39909L8.49935 7.12697L15.5827 3.39825V3.04159C15.5827 2.27644 14.9934 1.64893 14.244 1.58809L14.1243 1.58325Z" fill="#B4F0FF"/>
</svg>
