<svg width="13" height="18" viewBox="0 0 13 18" fill="none" xmlns="http://www.w3.org/2000/svg">
<path d="M2.38014 1.01504L3.35264 0.721904C4.45472 0.389707 5.63222 0.926569 6.10418 1.97642L6.85557 3.64786C7.25786 4.54271 7.04586 5.59438 6.32831 6.26351L5.08306 7.42472C5.04667 7.45866 5.02362 7.50451 5.0181 7.55396C4.98114 7.88492 5.20549 8.52942 5.72238 9.42469C6.09825 10.0757 6.43846 10.5323 6.72804 10.789C6.92979 10.9679 7.04085 11.0066 7.08813 10.9926L8.7634 10.4804C9.70139 10.1936 10.7179 10.5356 11.2918 11.331L12.3591 12.8102C13.0309 13.7412 12.9101 15.0256 12.0765 15.815L11.3379 16.5145C10.5408 17.2693 9.40621 17.5506 8.34891 17.2555C6.05384 16.6149 3.99609 14.6781 2.15286 11.4855C0.307066 8.28856 -0.340594 5.53485 0.256449 3.22503C0.529673 2.16796 1.33478 1.33013 2.38014 1.01504ZM2.74089 2.21185C2.11367 2.40091 1.63061 2.9036 1.46668 3.53784C0.964467 5.48077 1.53851 7.92149 3.23539 10.8605C4.93 13.7957 6.75412 15.5125 8.68497 16.0515C9.31935 16.2286 10.0001 16.0598 10.4783 15.6069L11.217 14.9074C11.5959 14.5486 11.6508 13.9648 11.3454 13.5416L10.2781 12.0624C10.0173 11.7009 9.55522 11.5454 9.12886 11.6758L7.44941 12.1892C6.47465 12.4798 5.58992 11.6952 4.63985 10.0497C3.99959 8.94074 3.70118 8.08351 3.77582 7.41522C3.81449 7.06902 3.9758 6.7481 4.23056 6.51053L5.47582 5.34932C5.80197 5.04517 5.89834 4.56714 5.71548 4.16038L4.96409 2.48895C4.74956 2.01174 4.21433 1.76771 3.71339 1.91871L2.74089 2.21185Z" fill="#B4F0FF"/>
</svg>
